G04 #@! TF.GenerationSoftware,KiCad,Pcbnew,9.0.6*
G04 #@! TF.CreationDate,2025-12-18T09:25:28+01:00*
G04 #@! TF.ProjectId,OM-64DO,4f4d2d36-3444-44f2-9e6b-696361645f70,1A*
G04 #@! TF.SameCoordinates,Original*
G04 #@! TF.FileFunction,Soldermask,Bot*
G04 #@! TF.FilePolarity,Negative*
%FSLAX46Y46*%
G04 Gerber Fmt 4.6, Leading zero omitted, Abs format (unit mm)*
G04 Created by KiCad (PCBNEW 9.0.6) date 2025-12-18 09:25:28*
%MOMM*%
%LPD*%
G01*
G04 APERTURE LIST*
G04 Aperture macros list*
%AMRoundRect*
0 Rectangle with rounded corners*
0 $1 Rounding radius*
0 $2 $3 $4 $5 $6 $7 $8 $9 X,Y pos of 4 corners*
0 Add a 4 corners polygon primitive as box body*
4,1,4,$2,$3,$4,$5,$6,$7,$8,$9,$2,$3,0*
0 Add four circle primitives for the rounded corners*
1,1,$1+$1,$2,$3*
1,1,$1+$1,$4,$5*
1,1,$1+$1,$6,$7*
1,1,$1+$1,$8,$9*
0 Add four rect primitives between the rounded corners*
20,1,$1+$1,$2,$3,$4,$5,0*
20,1,$1+$1,$4,$5,$6,$7,0*
20,1,$1+$1,$6,$7,$8,$9,0*
20,1,$1+$1,$8,$9,$2,$3,0*%
G04 Aperture macros list end*
%ADD10RoundRect,0.250001X-0.949999X-0.949999X0.949999X-0.949999X0.949999X0.949999X-0.949999X0.949999X0*%
%ADD11C,2.400000*%
%ADD12R,1.000000X1.000000*%
%ADD13C,1.000000*%
%ADD14RoundRect,0.250001X0.949999X0.949999X-0.949999X0.949999X-0.949999X-0.949999X0.949999X-0.949999X0*%
%ADD15R,1.500000X2.300000*%
%ADD16O,1.500000X2.300000*%
%ADD17R,0.425000X0.800000*%
%ADD18R,0.250000X0.800000*%
%ADD19RoundRect,0.200000X0.275000X-0.200000X0.275000X0.200000X-0.275000X0.200000X-0.275000X-0.200000X0*%
%ADD20RoundRect,0.200000X-0.200000X-0.275000X0.200000X-0.275000X0.200000X0.275000X-0.200000X0.275000X0*%
%ADD21RoundRect,0.200000X-0.275000X0.200000X-0.275000X-0.200000X0.275000X-0.200000X0.275000X0.200000X0*%
%ADD22RoundRect,0.150000X-0.150000X0.587500X-0.150000X-0.587500X0.150000X-0.587500X0.150000X0.587500X0*%
%ADD23RoundRect,0.225000X0.250000X-0.225000X0.250000X0.225000X-0.250000X0.225000X-0.250000X-0.225000X0*%
%ADD24RoundRect,0.075000X0.075000X-0.362500X0.075000X0.362500X-0.075000X0.362500X-0.075000X-0.362500X0*%
%ADD25R,2.400000X1.600000*%
G04 APERTURE END LIST*
D10*
G04 #@! TO.C,J201*
X95800000Y-80000000D03*
D11*
X99300000Y-80000000D03*
X102800000Y-80000000D03*
X106300000Y-80000000D03*
X109800000Y-80000000D03*
X113300000Y-80000000D03*
X116800000Y-80000000D03*
X120300000Y-80000000D03*
X123800000Y-80000000D03*
X127300000Y-80000000D03*
X130800000Y-80000000D03*
X134300000Y-80000000D03*
X137800000Y-80000000D03*
X141300000Y-80000000D03*
X144800000Y-80000000D03*
X148300000Y-80000000D03*
X151800000Y-80000000D03*
X155300000Y-80000000D03*
X158800000Y-80000000D03*
X162300000Y-80000000D03*
G04 #@! TD*
D12*
G04 #@! TO.C,J102*
X85370000Y-123000000D03*
D13*
X85370000Y-124270000D03*
X84100000Y-123000000D03*
X84100000Y-124270000D03*
X82830000Y-123000000D03*
X82830000Y-124270000D03*
G04 #@! TD*
D14*
G04 #@! TO.C,J401*
X162300000Y-131000000D03*
D11*
X158800000Y-131000000D03*
X155300000Y-131000000D03*
X151800000Y-131000000D03*
X148300000Y-131000000D03*
X144800000Y-131000000D03*
X141300000Y-131000000D03*
X137800000Y-131000000D03*
X134300000Y-131000000D03*
X130800000Y-131000000D03*
X127300000Y-131000000D03*
X123800000Y-131000000D03*
X120300000Y-131000000D03*
X116800000Y-131000000D03*
X113300000Y-131000000D03*
X109800000Y-131000000D03*
X106300000Y-131000000D03*
X102800000Y-131000000D03*
X99300000Y-131000000D03*
X95800000Y-131000000D03*
G04 #@! TD*
D14*
G04 #@! TO.C,J501*
X234100000Y-131000000D03*
D11*
X230600000Y-131000000D03*
X227100000Y-131000000D03*
X223600000Y-131000000D03*
X220100000Y-131000000D03*
X216600000Y-131000000D03*
X213100000Y-131000000D03*
X209600000Y-131000000D03*
X206100000Y-131000000D03*
X202600000Y-131000000D03*
X199100000Y-131000000D03*
X195600000Y-131000000D03*
X192100000Y-131000000D03*
X188600000Y-131000000D03*
X185100000Y-131000000D03*
X181600000Y-131000000D03*
X178100000Y-131000000D03*
X174600000Y-131000000D03*
X171100000Y-131000000D03*
X167600000Y-131000000D03*
G04 #@! TD*
D10*
G04 #@! TO.C,J101*
X80000000Y-80000000D03*
D11*
X83500000Y-80000000D03*
X87000000Y-80000000D03*
X90500000Y-80000000D03*
G04 #@! TD*
D10*
G04 #@! TO.C,J301*
X167600000Y-80000000D03*
D11*
X171100000Y-80000000D03*
X174600000Y-80000000D03*
X178100000Y-80000000D03*
X181600000Y-80000000D03*
X185100000Y-80000000D03*
X188600000Y-80000000D03*
X192100000Y-80000000D03*
X195600000Y-80000000D03*
X199100000Y-80000000D03*
X202600000Y-80000000D03*
X206100000Y-80000000D03*
X209600000Y-80000000D03*
X213100000Y-80000000D03*
X216600000Y-80000000D03*
X220100000Y-80000000D03*
X223600000Y-80000000D03*
X227100000Y-80000000D03*
X230600000Y-80000000D03*
X234100000Y-80000000D03*
G04 #@! TD*
D15*
G04 #@! TO.C,U101*
X81160000Y-90600000D03*
D16*
X83700000Y-90600000D03*
X86240000Y-90600000D03*
G04 #@! TD*
D17*
G04 #@! TO.C,RN502*
X217662500Y-117900000D03*
D18*
X217075000Y-117900000D03*
X216575000Y-117900000D03*
X216075000Y-117900000D03*
X215575000Y-117900000D03*
X215075000Y-117900000D03*
X214575000Y-117900000D03*
D17*
X213987500Y-117900000D03*
X213987500Y-116100000D03*
D18*
X214575000Y-116100000D03*
X215075000Y-116100000D03*
X215575000Y-116100000D03*
X216075000Y-116100000D03*
X216575000Y-116100000D03*
X217075000Y-116100000D03*
D17*
X217662500Y-116100000D03*
G04 #@! TD*
D19*
G04 #@! TO.C,R301*
X196600000Y-86150000D03*
X196600000Y-84500000D03*
G04 #@! TD*
D20*
G04 #@! TO.C,R102*
X95068750Y-95500000D03*
X96718750Y-95500000D03*
G04 #@! TD*
D19*
G04 #@! TO.C,R302*
X198100000Y-86150000D03*
X198100000Y-84500000D03*
G04 #@! TD*
D21*
G04 #@! TO.C,R506*
X197600000Y-125000000D03*
X197600000Y-126650000D03*
G04 #@! TD*
D22*
G04 #@! TO.C,D101*
X93968750Y-85125000D03*
X95868750Y-85125000D03*
X94918750Y-87000000D03*
G04 #@! TD*
D21*
G04 #@! TO.C,R505*
X199100000Y-125000000D03*
X199100000Y-126650000D03*
G04 #@! TD*
D17*
G04 #@! TO.C,RN204*
X153187500Y-93100000D03*
D18*
X153775000Y-93100000D03*
X154275000Y-93100000D03*
X154775000Y-93100000D03*
X155275000Y-93100000D03*
X155775000Y-93100000D03*
X156275000Y-93100000D03*
D17*
X156862500Y-93100000D03*
X156862500Y-94900000D03*
D18*
X156275000Y-94900000D03*
X155775000Y-94900000D03*
X155275000Y-94900000D03*
X154775000Y-94900000D03*
X154275000Y-94900000D03*
X153775000Y-94900000D03*
D17*
X153187500Y-94900000D03*
G04 #@! TD*
D19*
G04 #@! TO.C,R214*
X144300000Y-86150000D03*
X144300000Y-84500000D03*
G04 #@! TD*
D21*
G04 #@! TO.C,R516*
X182600000Y-125000000D03*
X182600000Y-126650000D03*
G04 #@! TD*
D19*
G04 #@! TO.C,R208*
X135300000Y-86150000D03*
X135300000Y-84500000D03*
G04 #@! TD*
G04 #@! TO.C,R313*
X214600000Y-86150000D03*
X214600000Y-84500000D03*
G04 #@! TD*
G04 #@! TO.C,R304*
X201100000Y-86150000D03*
X201100000Y-84500000D03*
G04 #@! TD*
G04 #@! TO.C,R216*
X147300000Y-86150000D03*
X147300000Y-84500000D03*
G04 #@! TD*
D21*
G04 #@! TO.C,R410*
X119800000Y-125000000D03*
X119800000Y-126650000D03*
G04 #@! TD*
D19*
G04 #@! TO.C,R315*
X217600000Y-86150000D03*
X217600000Y-84500000D03*
G04 #@! TD*
G04 #@! TO.C,R203*
X127800000Y-86150000D03*
X127800000Y-84500000D03*
G04 #@! TD*
G04 #@! TO.C,R303*
X199600000Y-86150000D03*
X199600000Y-84500000D03*
G04 #@! TD*
D21*
G04 #@! TO.C,R514*
X185600000Y-125000000D03*
X185600000Y-126650000D03*
G04 #@! TD*
D19*
G04 #@! TO.C,R308*
X207100000Y-86150000D03*
X207100000Y-84500000D03*
G04 #@! TD*
G04 #@! TO.C,R312*
X213100000Y-86150000D03*
X213100000Y-84500000D03*
G04 #@! TD*
G04 #@! TO.C,R307*
X205600000Y-86150000D03*
X205600000Y-84500000D03*
G04 #@! TD*
D21*
G04 #@! TO.C,R412*
X116800000Y-125000000D03*
X116800000Y-126650000D03*
G04 #@! TD*
G04 #@! TO.C,R513*
X187100000Y-125000000D03*
X187100000Y-126650000D03*
G04 #@! TD*
D19*
G04 #@! TO.C,R306*
X204100000Y-86150000D03*
X204100000Y-84500000D03*
G04 #@! TD*
D21*
G04 #@! TO.C,R411*
X118300000Y-125000000D03*
X118300000Y-126650000D03*
G04 #@! TD*
D23*
G04 #@! TO.C,C103*
X97743750Y-92775000D03*
X97743750Y-91225000D03*
G04 #@! TD*
D21*
G04 #@! TO.C,R406*
X125800000Y-125000000D03*
X125800000Y-126650000D03*
G04 #@! TD*
D19*
G04 #@! TO.C,R309*
X208600000Y-86150000D03*
X208600000Y-84500000D03*
G04 #@! TD*
D21*
G04 #@! TO.C,R509*
X193100000Y-125000000D03*
X193100000Y-126650000D03*
G04 #@! TD*
D24*
G04 #@! TO.C,U102*
X95893750Y-93875000D03*
X95243750Y-93875000D03*
X94593750Y-93875000D03*
X93943750Y-93875000D03*
X93943750Y-91000000D03*
X94593750Y-91000000D03*
X95243750Y-91000000D03*
X95893750Y-91000000D03*
D25*
X94918750Y-92437500D03*
G04 #@! TD*
D19*
G04 #@! TO.C,R310*
X210100000Y-86150000D03*
X210100000Y-84500000D03*
G04 #@! TD*
D21*
G04 #@! TO.C,R515*
X184100000Y-125000000D03*
X184100000Y-126650000D03*
G04 #@! TD*
G04 #@! TO.C,R404*
X128800000Y-125000000D03*
X128800000Y-126650000D03*
G04 #@! TD*
G04 #@! TO.C,R413*
X115300000Y-125000000D03*
X115300000Y-126650000D03*
G04 #@! TD*
D19*
G04 #@! TO.C,R211*
X139800000Y-86150000D03*
X139800000Y-84500000D03*
G04 #@! TD*
D17*
G04 #@! TO.C,RN304*
X224987500Y-93100000D03*
D18*
X225575000Y-93100000D03*
X226075000Y-93100000D03*
X226575000Y-93100000D03*
X227075000Y-93100000D03*
X227575000Y-93100000D03*
X228075000Y-93100000D03*
D17*
X228662500Y-93100000D03*
X228662500Y-94900000D03*
D18*
X228075000Y-94900000D03*
X227575000Y-94900000D03*
X227075000Y-94900000D03*
X226575000Y-94900000D03*
X226075000Y-94900000D03*
X225575000Y-94900000D03*
D17*
X224987500Y-94900000D03*
G04 #@! TD*
D19*
G04 #@! TO.C,R205*
X130800000Y-86150000D03*
X130800000Y-84500000D03*
G04 #@! TD*
D17*
G04 #@! TO.C,RN202*
X112237500Y-93100000D03*
D18*
X112825000Y-93100000D03*
X113325000Y-93100000D03*
X113825000Y-93100000D03*
X114325000Y-93100000D03*
X114825000Y-93100000D03*
X115325000Y-93100000D03*
D17*
X115912500Y-93100000D03*
X115912500Y-94900000D03*
D18*
X115325000Y-94900000D03*
X114825000Y-94900000D03*
X114325000Y-94900000D03*
X113825000Y-94900000D03*
X113325000Y-94900000D03*
X112825000Y-94900000D03*
D17*
X112237500Y-94900000D03*
G04 #@! TD*
D21*
G04 #@! TO.C,R415*
X112300000Y-125000000D03*
X112300000Y-126650000D03*
G04 #@! TD*
D19*
G04 #@! TO.C,R206*
X132300000Y-86150000D03*
X132300000Y-84500000D03*
G04 #@! TD*
D21*
G04 #@! TO.C,R401*
X133300000Y-125000000D03*
X133300000Y-126650000D03*
G04 #@! TD*
D19*
G04 #@! TO.C,R202*
X126300000Y-86150000D03*
X126300000Y-84500000D03*
G04 #@! TD*
D21*
G04 #@! TO.C,R501*
X205100000Y-125000000D03*
X205100000Y-126650000D03*
G04 #@! TD*
D19*
G04 #@! TO.C,R213*
X142800000Y-86150000D03*
X142800000Y-84500000D03*
G04 #@! TD*
D21*
G04 #@! TO.C,R414*
X113800000Y-125000000D03*
X113800000Y-126650000D03*
G04 #@! TD*
D19*
G04 #@! TO.C,R311*
X211600000Y-86150000D03*
X211600000Y-84500000D03*
G04 #@! TD*
D17*
G04 #@! TO.C,RN402*
X145862500Y-117900000D03*
D18*
X145275000Y-117900000D03*
X144775000Y-117900000D03*
X144275000Y-117900000D03*
X143775000Y-117900000D03*
X143275000Y-117900000D03*
X142775000Y-117900000D03*
D17*
X142187500Y-117900000D03*
X142187500Y-116100000D03*
D18*
X142775000Y-116100000D03*
X143275000Y-116100000D03*
X143775000Y-116100000D03*
X144275000Y-116100000D03*
X144775000Y-116100000D03*
X145275000Y-116100000D03*
D17*
X145862500Y-116100000D03*
G04 #@! TD*
D19*
G04 #@! TO.C,R305*
X202600000Y-86150000D03*
X202600000Y-84500000D03*
G04 #@! TD*
D21*
G04 #@! TO.C,R503*
X202100000Y-125000000D03*
X202100000Y-126650000D03*
G04 #@! TD*
G04 #@! TO.C,R502*
X203600000Y-125000000D03*
X203600000Y-126650000D03*
G04 #@! TD*
G04 #@! TO.C,R409*
X121300000Y-125000000D03*
X121300000Y-126650000D03*
G04 #@! TD*
G04 #@! TO.C,R511*
X190100000Y-125000000D03*
X190100000Y-126650000D03*
G04 #@! TD*
D17*
G04 #@! TO.C,RN504*
X176712500Y-117900000D03*
D18*
X176125000Y-117900000D03*
X175625000Y-117900000D03*
X175125000Y-117900000D03*
X174625000Y-117900000D03*
X174125000Y-117900000D03*
X173625000Y-117900000D03*
D17*
X173037500Y-117900000D03*
X173037500Y-116100000D03*
D18*
X173625000Y-116100000D03*
X174125000Y-116100000D03*
X174625000Y-116100000D03*
X175125000Y-116100000D03*
X175625000Y-116100000D03*
X176125000Y-116100000D03*
D17*
X176712500Y-116100000D03*
G04 #@! TD*
D21*
G04 #@! TO.C,R510*
X191600000Y-125000000D03*
X191600000Y-126650000D03*
G04 #@! TD*
D17*
G04 #@! TO.C,RN302*
X184037500Y-93100000D03*
D18*
X184625000Y-93100000D03*
X185125000Y-93100000D03*
X185625000Y-93100000D03*
X186125000Y-93100000D03*
X186625000Y-93100000D03*
X187125000Y-93100000D03*
D17*
X187712500Y-93100000D03*
X187712500Y-94900000D03*
D18*
X187125000Y-94900000D03*
X186625000Y-94900000D03*
X186125000Y-94900000D03*
X185625000Y-94900000D03*
X185125000Y-94900000D03*
X184625000Y-94900000D03*
D17*
X184037500Y-94900000D03*
G04 #@! TD*
D19*
G04 #@! TO.C,R207*
X133800000Y-86150000D03*
X133800000Y-84500000D03*
G04 #@! TD*
D21*
G04 #@! TO.C,R402*
X131800000Y-125000000D03*
X131800000Y-126650000D03*
G04 #@! TD*
D19*
G04 #@! TO.C,R204*
X129300000Y-86150000D03*
X129300000Y-84500000D03*
G04 #@! TD*
G04 #@! TO.C,R201*
X124800000Y-86150000D03*
X124800000Y-84500000D03*
G04 #@! TD*
G04 #@! TO.C,R210*
X138300000Y-86150000D03*
X138300000Y-84500000D03*
G04 #@! TD*
D21*
G04 #@! TO.C,R408*
X122800000Y-125000000D03*
X122800000Y-126650000D03*
G04 #@! TD*
D19*
G04 #@! TO.C,R316*
X219100000Y-86150000D03*
X219100000Y-84500000D03*
G04 #@! TD*
D21*
G04 #@! TO.C,R416*
X110800000Y-125000000D03*
X110800000Y-126650000D03*
G04 #@! TD*
G04 #@! TO.C,R512*
X188600000Y-125000000D03*
X188600000Y-126650000D03*
G04 #@! TD*
G04 #@! TO.C,R407*
X124300000Y-125000000D03*
X124300000Y-126650000D03*
G04 #@! TD*
D19*
G04 #@! TO.C,R314*
X216100000Y-86150000D03*
X216100000Y-84500000D03*
G04 #@! TD*
D21*
G04 #@! TO.C,R405*
X127300000Y-125000000D03*
X127300000Y-126650000D03*
G04 #@! TD*
D17*
G04 #@! TO.C,RN404*
X104912500Y-117900000D03*
D18*
X104325000Y-117900000D03*
X103825000Y-117900000D03*
X103325000Y-117900000D03*
X102825000Y-117900000D03*
X102325000Y-117900000D03*
X101825000Y-117900000D03*
D17*
X101237500Y-117900000D03*
X101237500Y-116100000D03*
D18*
X101825000Y-116100000D03*
X102325000Y-116100000D03*
X102825000Y-116100000D03*
X103325000Y-116100000D03*
X103825000Y-116100000D03*
X104325000Y-116100000D03*
D17*
X104912500Y-116100000D03*
G04 #@! TD*
D21*
G04 #@! TO.C,R403*
X130300000Y-125000000D03*
X130300000Y-126650000D03*
G04 #@! TD*
G04 #@! TO.C,R504*
X200600000Y-125000000D03*
X200600000Y-126650000D03*
G04 #@! TD*
G04 #@! TO.C,R507*
X196100000Y-125000000D03*
X196100000Y-126650000D03*
G04 #@! TD*
G04 #@! TO.C,R508*
X194600000Y-125000000D03*
X194600000Y-126650000D03*
G04 #@! TD*
D19*
G04 #@! TO.C,R215*
X145800000Y-86150000D03*
X145800000Y-84500000D03*
G04 #@! TD*
G04 #@! TO.C,R212*
X141300000Y-86150000D03*
X141300000Y-84500000D03*
G04 #@! TD*
G04 #@! TO.C,R209*
X136800000Y-86150000D03*
X136800000Y-84500000D03*
G04 #@! TD*
M02*
