M48
; DRILL file {KiCad 9.0.6} date 2025-12-18T09:25:28+0100
; FORMAT={-:-/ absolute / metric / decimal}
; #@! TF.CreationDate,2025-12-18T09:25:28+01:00
; #@! TF.GenerationSoftware,Kicad,Pcbnew,9.0.6
; #@! TF.FileFunction,Plated,1,2,PTH
FMAT,2
METRIC
; #@! TA.AperFunction,Plated,PTH,ViaDrill
T1C0.300
; #@! TA.AperFunction,Plated,PTH,ComponentDrill
T2C0.650
; #@! TA.AperFunction,Plated,PTH,ComponentDrill
T3C1.000
; #@! TA.AperFunction,Plated,PTH,ComponentDrill
T4C1.400
%
G90
G05
T1
X87.0Y-105.325
X93.944Y-107.275
X94.394Y-92.35
X94.919Y-88.5
X94.919Y-89.5
X94.919Y-106.625
X95.394Y-92.35
X95.894Y-107.925
X96.8Y-119.0
X97.75Y-90.25
X97.8Y-119.0
X98.8Y-119.0
X99.8Y-119.0
X101.322Y-114.503
X101.822Y-115.303
X102.322Y-114.503
X102.822Y-115.303
X103.0Y-102.075
X103.0Y-103.075
X103.0Y-104.075
X103.0Y-105.075
X103.0Y-106.075
X103.0Y-107.075
X103.0Y-108.075
X103.322Y-114.503
X103.822Y-115.303
X104.0Y-102.075
X104.0Y-103.075
X104.0Y-104.075
X104.0Y-105.075
X104.0Y-106.075
X104.0Y-107.075
X104.0Y-108.075
X104.322Y-114.503
X104.822Y-115.303
X105.0Y-102.075
X105.0Y-103.075
X105.0Y-104.075
X105.0Y-105.075
X105.0Y-106.075
X105.0Y-107.075
X105.0Y-108.075
X105.3Y-85.5
X105.3Y-86.5
X105.3Y-87.5
X106.3Y-85.5
X106.3Y-86.5
X106.3Y-87.5
X106.8Y-93.0
X106.8Y-94.0
X106.8Y-95.0
X107.3Y-85.5
X107.3Y-86.5
X107.3Y-87.5
X107.8Y-93.0
X107.8Y-94.0
X107.8Y-95.0
X108.8Y-93.0
X108.8Y-94.0
X108.8Y-95.0
X109.0Y-103.5
X110.0Y-102.736
X110.8Y-124.0
X112.3Y-124.0
X112.325Y-96.5
X112.5Y-104.0
X112.5Y-107.0
X112.825Y-95.7
X113.325Y-96.5
X113.8Y-124.0
X113.825Y-95.7
X114.325Y-96.5
X114.825Y-95.7
X115.3Y-124.0
X115.325Y-96.5
X115.8Y-108.5
X115.8Y-109.5
X115.825Y-95.7
X116.8Y-124.0
X117.3Y-92.0
X118.3Y-92.0
X118.3Y-124.0
X119.3Y-92.0
X119.8Y-124.0
X120.3Y-92.0
X120.3Y-109.0
X120.3Y-110.0
X120.3Y-111.0
X120.3Y-112.0
X120.3Y-113.0
X120.3Y-114.0
X120.3Y-115.0
X120.3Y-116.0
X120.3Y-117.0
X120.3Y-118.0
X121.3Y-109.0
X121.3Y-110.0
X121.3Y-111.0
X121.3Y-112.0
X121.3Y-113.0
X121.3Y-114.0
X121.3Y-115.0
X121.3Y-116.0
X121.3Y-117.0
X121.3Y-118.0
X121.3Y-124.0
X122.3Y-106.25
X122.3Y-108.0
X122.3Y-110.0
X122.3Y-111.0
X122.3Y-112.0
X122.3Y-113.0
X122.3Y-114.0
X122.3Y-115.0
X122.3Y-116.0
X122.3Y-117.0
X122.3Y-118.0
X122.8Y-124.0
X123.3Y-105.75
X123.3Y-108.0
X123.3Y-111.0
X123.3Y-112.0
X123.3Y-113.0
X123.3Y-114.0
X123.3Y-115.0
X123.3Y-116.0
X123.3Y-117.0
X123.3Y-118.0
X124.3Y-104.75
X124.3Y-108.0
X124.3Y-124.0
X124.8Y-87.0
X125.8Y-124.0
X126.3Y-87.0
X127.3Y-124.0
X127.8Y-87.0
X127.8Y-102.5
X127.8Y-105.25
X128.8Y-124.0
X129.3Y-87.0
X130.3Y-105.25
X130.3Y-108.5
X130.3Y-124.0
X130.8Y-87.0
X131.8Y-124.0
X132.3Y-87.0
X133.3Y-124.0
X133.8Y-87.0
X133.8Y-103.0
X133.8Y-104.75
X134.8Y-93.0
X134.8Y-94.0
X134.8Y-95.0
X134.8Y-96.0
X134.8Y-97.0
X134.8Y-98.0
X134.8Y-99.0
X134.8Y-100.0
X134.8Y-103.0
X134.8Y-105.75
X135.3Y-87.0
X135.8Y-93.0
X135.8Y-94.0
X135.8Y-95.0
X135.8Y-96.0
X135.8Y-97.0
X135.8Y-98.0
X135.8Y-99.0
X135.8Y-100.0
X135.8Y-101.0
X135.8Y-103.0
X135.8Y-106.25
X136.8Y-87.0
X136.8Y-93.0
X136.8Y-94.0
X136.8Y-95.0
X136.8Y-96.0
X136.8Y-97.0
X136.8Y-98.0
X136.8Y-99.0
X136.8Y-100.0
X136.8Y-101.0
X136.8Y-102.0
X137.8Y-93.0
X137.8Y-94.0
X137.8Y-95.0
X137.8Y-96.0
X137.8Y-97.0
X137.8Y-98.0
X137.8Y-99.0
X137.8Y-100.0
X137.8Y-101.0
X137.8Y-102.0
X137.8Y-119.0
X138.3Y-87.0
X138.8Y-119.0
X139.8Y-87.0
X139.8Y-119.0
X140.8Y-119.0
X141.3Y-87.0
X142.272Y-115.303
X142.3Y-101.5
X142.3Y-102.5
X142.772Y-114.503
X142.8Y-87.0
X143.272Y-115.303
X143.772Y-114.503
X144.272Y-115.303
X144.3Y-87.0
X144.772Y-114.503
X145.272Y-115.303
X145.772Y-114.503
X145.8Y-87.0
X147.3Y-87.0
X149.3Y-116.0
X149.3Y-117.0
X149.3Y-118.0
X150.3Y-116.0
X150.3Y-117.0
X150.3Y-118.0
X150.8Y-123.5
X150.8Y-124.5
X150.8Y-125.5
X151.3Y-116.0
X151.3Y-117.0
X151.3Y-118.0
X151.8Y-123.5
X151.8Y-124.5
X151.8Y-125.5
X152.8Y-123.5
X152.8Y-124.5
X152.8Y-125.5
X153.275Y-95.7
X153.775Y-96.5
X154.275Y-95.7
X154.775Y-96.5
X155.275Y-95.7
X155.775Y-96.5
X156.275Y-95.7
X156.775Y-96.5
X158.3Y-92.0
X159.3Y-92.0
X160.3Y-92.0
X161.3Y-92.0
X168.6Y-119.0
X169.6Y-119.0
X170.6Y-119.0
X171.6Y-119.0
X173.122Y-114.503
X173.622Y-115.303
X174.122Y-114.503
X174.622Y-115.303
X175.122Y-114.503
X175.622Y-115.303
X176.122Y-114.503
X176.622Y-115.303
X177.1Y-85.5
X177.1Y-86.5
X177.1Y-87.5
X178.1Y-85.5
X178.1Y-86.5
X178.1Y-87.5
X178.6Y-93.0
X178.6Y-94.0
X178.6Y-95.0
X179.1Y-85.5
X179.1Y-86.5
X179.1Y-87.5
X179.6Y-93.0
X179.6Y-94.0
X179.6Y-95.0
X180.6Y-93.0
X180.6Y-94.0
X180.6Y-95.0
X182.6Y-124.0
X184.1Y-124.0
X184.125Y-96.5
X184.625Y-95.7
X185.125Y-96.5
X185.6Y-124.0
X185.625Y-95.7
X186.125Y-96.5
X186.625Y-95.7
X187.1Y-124.0
X187.125Y-96.5
X187.6Y-108.5
X187.6Y-109.5
X187.625Y-95.7
X188.6Y-124.0
X189.1Y-92.0
X190.1Y-92.0
X190.1Y-124.0
X191.1Y-92.0
X191.6Y-124.0
X192.1Y-92.0
X192.1Y-109.0
X192.1Y-110.0
X192.1Y-111.0
X192.1Y-112.0
X192.1Y-113.0
X192.1Y-114.0
X192.1Y-115.0
X192.1Y-116.0
X192.1Y-117.0
X192.1Y-118.0
X193.1Y-109.0
X193.1Y-110.0
X193.1Y-111.0
X193.1Y-112.0
X193.1Y-113.0
X193.1Y-114.0
X193.1Y-115.0
X193.1Y-116.0
X193.1Y-117.0
X193.1Y-118.0
X193.1Y-124.0
X194.1Y-106.25
X194.1Y-108.0
X194.1Y-110.0
X194.1Y-111.0
X194.1Y-112.0
X194.1Y-113.0
X194.1Y-114.0
X194.1Y-115.0
X194.1Y-116.0
X194.1Y-117.0
X194.1Y-118.0
X194.6Y-124.0
X195.1Y-105.75
X195.1Y-108.0
X195.1Y-111.0
X195.1Y-112.0
X195.1Y-113.0
X195.1Y-114.0
X195.1Y-115.0
X195.1Y-116.0
X195.1Y-117.0
X195.1Y-118.0
X196.1Y-104.75
X196.1Y-108.0
X196.1Y-124.0
X196.6Y-87.0
X197.6Y-124.0
X198.1Y-87.0
X199.1Y-124.0
X199.6Y-87.0
X199.6Y-102.5
X199.6Y-105.25
X200.6Y-124.0
X201.1Y-87.0
X202.1Y-105.25
X202.1Y-108.5
X202.1Y-124.0
X202.6Y-87.0
X203.6Y-124.0
X204.1Y-87.0
X205.1Y-124.0
X205.6Y-87.0
X205.6Y-103.0
X205.6Y-104.75
X206.6Y-93.0
X206.6Y-94.0
X206.6Y-95.0
X206.6Y-96.0
X206.6Y-97.0
X206.6Y-98.0
X206.6Y-99.0
X206.6Y-100.0
X206.6Y-103.0
X206.6Y-105.75
X207.1Y-87.0
X207.6Y-93.0
X207.6Y-94.0
X207.6Y-95.0
X207.6Y-96.0
X207.6Y-97.0
X207.6Y-98.0
X207.6Y-99.0
X207.6Y-100.0
X207.6Y-101.0
X207.6Y-103.0
X207.6Y-106.25
X208.6Y-87.0
X208.6Y-93.0
X208.6Y-94.0
X208.6Y-95.0
X208.6Y-96.0
X208.6Y-97.0
X208.6Y-98.0
X208.6Y-99.0
X208.6Y-100.0
X208.6Y-101.0
X208.6Y-102.0
X209.6Y-93.0
X209.6Y-94.0
X209.6Y-95.0
X209.6Y-96.0
X209.6Y-97.0
X209.6Y-98.0
X209.6Y-99.0
X209.6Y-100.0
X209.6Y-101.0
X209.6Y-102.0
X209.6Y-119.0
X210.1Y-87.0
X210.6Y-119.0
X211.6Y-87.0
X211.6Y-119.0
X212.6Y-119.0
X213.1Y-87.0
X214.072Y-115.303
X214.1Y-101.5
X214.1Y-102.5
X214.572Y-114.503
X214.6Y-87.0
X215.072Y-115.303
X215.572Y-114.503
X216.072Y-115.303
X216.1Y-87.0
X216.572Y-114.503
X217.072Y-115.303
X217.572Y-114.503
X217.6Y-87.0
X219.1Y-87.0
X221.1Y-116.0
X221.1Y-117.0
X221.1Y-118.0
X222.1Y-116.0
X222.1Y-117.0
X222.1Y-118.0
X222.6Y-123.5
X222.6Y-124.5
X222.6Y-125.5
X223.1Y-116.0
X223.1Y-117.0
X223.1Y-118.0
X223.6Y-123.5
X223.6Y-124.5
X223.6Y-125.5
X224.6Y-123.5
X224.6Y-124.5
X224.6Y-125.5
X225.075Y-95.7
X225.575Y-96.5
X226.075Y-95.7
X226.575Y-96.5
X227.075Y-95.7
X227.575Y-96.5
X228.075Y-95.7
X228.575Y-96.5
X230.1Y-92.0
X231.1Y-92.0
X232.1Y-92.0
X233.1Y-92.0
T2
X82.83Y-123.0
X82.83Y-124.27
X84.1Y-123.0
X84.1Y-124.27
X85.37Y-123.0
X85.37Y-124.27
T3
X81.16Y-90.6
X83.7Y-90.6
X86.24Y-90.6
T4
X80.0Y-80.0
X83.5Y-80.0
X87.0Y-80.0
X90.5Y-80.0
X95.8Y-80.0
X95.8Y-131.0
X99.3Y-80.0
X99.3Y-131.0
X102.8Y-80.0
X102.8Y-131.0
X106.3Y-80.0
X106.3Y-131.0
X109.8Y-80.0
X109.8Y-131.0
X113.3Y-80.0
X113.3Y-131.0
X116.8Y-80.0
X116.8Y-131.0
X120.3Y-80.0
X120.3Y-131.0
X123.8Y-80.0
X123.8Y-131.0
X127.3Y-80.0
X127.3Y-131.0
X130.8Y-80.0
X130.8Y-131.0
X134.3Y-80.0
X134.3Y-131.0
X137.8Y-80.0
X137.8Y-131.0
X141.3Y-80.0
X141.3Y-131.0
X144.8Y-80.0
X144.8Y-131.0
X148.3Y-80.0
X148.3Y-131.0
X151.8Y-80.0
X151.8Y-131.0
X155.3Y-80.0
X155.3Y-131.0
X158.8Y-80.0
X158.8Y-131.0
X162.3Y-80.0
X162.3Y-131.0
X167.6Y-80.0
X167.6Y-131.0
X171.1Y-80.0
X171.1Y-131.0
X174.6Y-80.0
X174.6Y-131.0
X178.1Y-80.0
X178.1Y-131.0
X181.6Y-80.0
X181.6Y-131.0
X185.1Y-80.0
X185.1Y-131.0
X188.6Y-80.0
X188.6Y-131.0
X192.1Y-80.0
X192.1Y-131.0
X195.6Y-80.0
X195.6Y-131.0
X199.1Y-80.0
X199.1Y-131.0
X202.6Y-80.0
X202.6Y-131.0
X206.1Y-80.0
X206.1Y-131.0
X209.6Y-80.0
X209.6Y-131.0
X213.1Y-80.0
X213.1Y-131.0
X216.6Y-80.0
X216.6Y-131.0
X220.1Y-80.0
X220.1Y-131.0
X223.6Y-80.0
X223.6Y-131.0
X227.1Y-80.0
X227.1Y-131.0
X230.6Y-80.0
X230.6Y-131.0
X234.1Y-80.0
X234.1Y-131.0
M30
