%TF.GenerationSoftware,KiCad,Pcbnew,9.0.6*%
%TF.CreationDate,2025-12-17T10:29:11+01:00*%
%TF.ProjectId,OM-64DO,4f4d2d36-3444-44f2-9e6b-696361645f70,1A*%
%TF.SameCoordinates,Original*%
%TF.FileFunction,Drillmap*%
%TF.FilePolarity,Positive*%
%FSLAX45Y45*%
G04 Gerber Fmt 4.5, Leading zero omitted, Abs format (unit mm)*
G04 Created by KiCad (PCBNEW 9.0.6) date 2025-12-17 10:29:11*
%MOMM*%
%LPD*%
G01*
G04 APERTURE LIST*
%ADD10C,0.050000*%
%ADD11C,0.200000*%
G04 APERTURE END LIST*
D10*
X7550000Y-7050000D02*
G75*
G02*
X7650000Y-6950000I100000J0D01*
G01*
X23760000Y-6950000D02*
G75*
G02*
X23860000Y-7050000I0J-100000D01*
G01*
X7650000Y-14150000D02*
G75*
G02*
X7550000Y-14050000I0J100000D01*
G01*
X23860000Y-14050000D02*
G75*
G02*
X23760000Y-14150000I-100000J0D01*
G01*
X7550000Y-14050000D02*
X7550000Y-7050000D01*
X7650000Y-6950000D02*
X23760000Y-6950000D01*
X23860000Y-7050000D02*
X23860000Y-14050000D01*
X23760000Y-14150000D02*
X7650000Y-14150000D01*
D11*
X7808277Y-14463984D02*
X7808277Y-14263984D01*
X7808277Y-14263984D02*
X7855896Y-14263984D01*
X7855896Y-14263984D02*
X7884467Y-14273508D01*
X7884467Y-14273508D02*
X7903515Y-14292555D01*
X7903515Y-14292555D02*
X7913039Y-14311603D01*
X7913039Y-14311603D02*
X7922562Y-14349698D01*
X7922562Y-14349698D02*
X7922562Y-14378269D01*
X7922562Y-14378269D02*
X7913039Y-14416365D01*
X7913039Y-14416365D02*
X7903515Y-14435412D01*
X7903515Y-14435412D02*
X7884467Y-14454460D01*
X7884467Y-14454460D02*
X7855896Y-14463984D01*
X7855896Y-14463984D02*
X7808277Y-14463984D01*
X8008277Y-14463984D02*
X8008277Y-14330650D01*
X8008277Y-14368746D02*
X8017801Y-14349698D01*
X8017801Y-14349698D02*
X8027324Y-14340174D01*
X8027324Y-14340174D02*
X8046372Y-14330650D01*
X8046372Y-14330650D02*
X8065420Y-14330650D01*
X8132086Y-14463984D02*
X8132086Y-14330650D01*
X8132086Y-14263984D02*
X8122562Y-14273508D01*
X8122562Y-14273508D02*
X8132086Y-14283031D01*
X8132086Y-14283031D02*
X8141610Y-14273508D01*
X8141610Y-14273508D02*
X8132086Y-14263984D01*
X8132086Y-14263984D02*
X8132086Y-14283031D01*
X8255896Y-14463984D02*
X8236848Y-14454460D01*
X8236848Y-14454460D02*
X8227324Y-14435412D01*
X8227324Y-14435412D02*
X8227324Y-14263984D01*
X8360658Y-14463984D02*
X8341610Y-14454460D01*
X8341610Y-14454460D02*
X8332086Y-14435412D01*
X8332086Y-14435412D02*
X8332086Y-14263984D01*
X8589229Y-14463984D02*
X8589229Y-14263984D01*
X8589229Y-14263984D02*
X8655896Y-14406841D01*
X8655896Y-14406841D02*
X8722563Y-14263984D01*
X8722563Y-14263984D02*
X8722563Y-14463984D01*
X8903515Y-14463984D02*
X8903515Y-14359222D01*
X8903515Y-14359222D02*
X8893991Y-14340174D01*
X8893991Y-14340174D02*
X8874944Y-14330650D01*
X8874944Y-14330650D02*
X8836848Y-14330650D01*
X8836848Y-14330650D02*
X8817801Y-14340174D01*
X8903515Y-14454460D02*
X8884467Y-14463984D01*
X8884467Y-14463984D02*
X8836848Y-14463984D01*
X8836848Y-14463984D02*
X8817801Y-14454460D01*
X8817801Y-14454460D02*
X8808277Y-14435412D01*
X8808277Y-14435412D02*
X8808277Y-14416365D01*
X8808277Y-14416365D02*
X8817801Y-14397317D01*
X8817801Y-14397317D02*
X8836848Y-14387793D01*
X8836848Y-14387793D02*
X8884467Y-14387793D01*
X8884467Y-14387793D02*
X8903515Y-14378269D01*
X8998753Y-14330650D02*
X8998753Y-14530650D01*
X8998753Y-14340174D02*
X9017801Y-14330650D01*
X9017801Y-14330650D02*
X9055896Y-14330650D01*
X9055896Y-14330650D02*
X9074944Y-14340174D01*
X9074944Y-14340174D02*
X9084467Y-14349698D01*
X9084467Y-14349698D02*
X9093991Y-14368746D01*
X9093991Y-14368746D02*
X9093991Y-14425888D01*
X9093991Y-14425888D02*
X9084467Y-14444936D01*
X9084467Y-14444936D02*
X9074944Y-14454460D01*
X9074944Y-14454460D02*
X9055896Y-14463984D01*
X9055896Y-14463984D02*
X9017801Y-14463984D01*
X9017801Y-14463984D02*
X8998753Y-14454460D01*
X9179705Y-14444936D02*
X9189229Y-14454460D01*
X9189229Y-14454460D02*
X9179705Y-14463984D01*
X9179705Y-14463984D02*
X9170182Y-14454460D01*
X9170182Y-14454460D02*
X9179705Y-14444936D01*
X9179705Y-14444936D02*
X9179705Y-14463984D01*
X9179705Y-14340174D02*
X9189229Y-14349698D01*
X9189229Y-14349698D02*
X9179705Y-14359222D01*
X9179705Y-14359222D02*
X9170182Y-14349698D01*
X9170182Y-14349698D02*
X9179705Y-14340174D01*
X9179705Y-14340174D02*
X9179705Y-14359222D01*
M02*
