G04 #@! TF.GenerationSoftware,KiCad,Pcbnew,9.0.6*
G04 #@! TF.CreationDate,2025-12-18T09:25:28+01:00*
G04 #@! TF.ProjectId,OM-64DO,4f4d2d36-3444-44f2-9e6b-696361645f70,1A*
G04 #@! TF.SameCoordinates,Original*
G04 #@! TF.FileFunction,Paste,Top*
G04 #@! TF.FilePolarity,Positive*
%FSLAX46Y46*%
G04 Gerber Fmt 4.6, Leading zero omitted, Abs format (unit mm)*
G04 Created by KiCad (PCBNEW 9.0.6) date 2025-12-18 09:25:28*
%MOMM*%
%LPD*%
G01*
G04 APERTURE LIST*
G04 Aperture macros list*
%AMRoundRect*
0 Rectangle with rounded corners*
0 $1 Rounding radius*
0 $2 $3 $4 $5 $6 $7 $8 $9 X,Y pos of 4 corners*
0 Add a 4 corners polygon primitive as box body*
4,1,4,$2,$3,$4,$5,$6,$7,$8,$9,$2,$3,0*
0 Add four circle primitives for the rounded corners*
1,1,$1+$1,$2,$3*
1,1,$1+$1,$4,$5*
1,1,$1+$1,$6,$7*
1,1,$1+$1,$8,$9*
0 Add four rect primitives between the rounded corners*
20,1,$1+$1,$2,$3,$4,$5,0*
20,1,$1+$1,$4,$5,$6,$7,0*
20,1,$1+$1,$6,$7,$8,$9,0*
20,1,$1+$1,$8,$9,$2,$3,0*%
G04 Aperture macros list end*
%ADD10RoundRect,0.218750X0.256250X-0.218750X0.256250X0.218750X-0.256250X0.218750X-0.256250X-0.218750X0*%
%ADD11RoundRect,0.225000X-0.250000X0.225000X-0.250000X-0.225000X0.250000X-0.225000X0.250000X0.225000X0*%
%ADD12RoundRect,0.218750X-0.256250X0.218750X-0.256250X-0.218750X0.256250X-0.218750X0.256250X0.218750X0*%
%ADD13R,0.425000X0.800000*%
%ADD14R,0.250000X0.800000*%
%ADD15RoundRect,0.200000X0.200000X0.275000X-0.200000X0.275000X-0.200000X-0.275000X0.200000X-0.275000X0*%
%ADD16RoundRect,0.225000X0.250000X-0.225000X0.250000X0.225000X-0.250000X0.225000X-0.250000X-0.225000X0*%
%ADD17R,0.400000X1.000000*%
%ADD18RoundRect,0.200000X-0.275000X0.200000X-0.275000X-0.200000X0.275000X-0.200000X0.275000X0.200000X0*%
%ADD19RoundRect,0.250000X-1.000000X-0.900000X1.000000X-0.900000X1.000000X0.900000X-1.000000X0.900000X0*%
%ADD20RoundRect,0.250000X1.500000X1.000000X-1.500000X1.000000X-1.500000X-1.000000X1.500000X-1.000000X0*%
%ADD21RoundRect,0.100000X0.850000X0.100000X-0.850000X0.100000X-0.850000X-0.100000X0.850000X-0.100000X0*%
%ADD22RoundRect,0.250000X-0.325000X-0.650000X0.325000X-0.650000X0.325000X0.650000X-0.325000X0.650000X0*%
%ADD23RoundRect,0.200000X0.275000X-0.200000X0.275000X0.200000X-0.275000X0.200000X-0.275000X-0.200000X0*%
%ADD24RoundRect,0.250000X1.000000X0.900000X-1.000000X0.900000X-1.000000X-0.900000X1.000000X-0.900000X0*%
%ADD25RoundRect,0.100000X-0.850000X-0.100000X0.850000X-0.100000X0.850000X0.100000X-0.850000X0.100000X0*%
%ADD26RoundRect,0.250000X-1.500000X-1.000000X1.500000X-1.000000X1.500000X1.000000X-1.500000X1.000000X0*%
%ADD27RoundRect,0.200000X-0.200000X-0.275000X0.200000X-0.275000X0.200000X0.275000X-0.200000X0.275000X0*%
%ADD28RoundRect,0.100000X-0.637500X-0.100000X0.637500X-0.100000X0.637500X0.100000X-0.637500X0.100000X0*%
%ADD29RoundRect,0.250000X0.325000X0.650000X-0.325000X0.650000X-0.325000X-0.650000X0.325000X-0.650000X0*%
%ADD30RoundRect,0.218750X-0.218750X-0.256250X0.218750X-0.256250X0.218750X0.256250X-0.218750X0.256250X0*%
G04 APERTURE END LIST*
D10*
G04 #@! TO.C,D405*
X127300000Y-123000000D03*
X127300000Y-121425000D03*
G04 #@! TD*
D11*
G04 #@! TO.C,C206*
X118825000Y-89225000D03*
X118825000Y-90775000D03*
G04 #@! TD*
D12*
G04 #@! TO.C,D201*
X124800000Y-87925000D03*
X124800000Y-89500000D03*
G04 #@! TD*
D11*
G04 #@! TO.C,C203*
X128300000Y-98725000D03*
X128300000Y-100275000D03*
G04 #@! TD*
D13*
G04 #@! TO.C,RN401*
X145862500Y-116100000D03*
D14*
X145275000Y-116100000D03*
X144775000Y-116100000D03*
X144275000Y-116100000D03*
X143775000Y-116100000D03*
X143275000Y-116100000D03*
X142775000Y-116100000D03*
D13*
X142187500Y-116100000D03*
X142187500Y-117900000D03*
D14*
X142775000Y-117900000D03*
X143275000Y-117900000D03*
X143775000Y-117900000D03*
X144275000Y-117900000D03*
X144775000Y-117900000D03*
X145275000Y-117900000D03*
D13*
X145862500Y-117900000D03*
G04 #@! TD*
D10*
G04 #@! TO.C,D416*
X110800000Y-123000000D03*
X110800000Y-121425000D03*
G04 #@! TD*
D12*
G04 #@! TO.C,D306*
X204100000Y-87925000D03*
X204100000Y-89500000D03*
G04 #@! TD*
D15*
G04 #@! TO.C,R318*
X201925000Y-102500000D03*
X200275000Y-102500000D03*
G04 #@! TD*
D12*
G04 #@! TO.C,D312*
X213100000Y-87925000D03*
X213100000Y-89500000D03*
G04 #@! TD*
D10*
G04 #@! TO.C,D507*
X196100000Y-123000000D03*
X196100000Y-121425000D03*
G04 #@! TD*
D16*
G04 #@! TO.C,C501*
X187600000Y-112275000D03*
X187600000Y-110725000D03*
G04 #@! TD*
D10*
G04 #@! TO.C,D408*
X122800000Y-123000000D03*
X122800000Y-121425000D03*
G04 #@! TD*
G04 #@! TO.C,D401*
X133300000Y-123000000D03*
X133300000Y-121425000D03*
G04 #@! TD*
D17*
G04 #@! TO.C,U201*
X111800000Y-90700000D03*
X112450000Y-90700000D03*
X113100000Y-90700000D03*
X113750000Y-90700000D03*
X114400000Y-90700000D03*
X115050000Y-90700000D03*
X115700000Y-90700000D03*
X116350000Y-90700000D03*
X117000000Y-90700000D03*
X117000000Y-85300000D03*
X116350000Y-85300000D03*
X115700000Y-85300000D03*
X115050000Y-85300000D03*
X114400000Y-85300000D03*
X113750000Y-85300000D03*
X113100000Y-85300000D03*
X112450000Y-85300000D03*
X111800000Y-85300000D03*
G04 #@! TD*
D12*
G04 #@! TO.C,D216*
X147300000Y-87925000D03*
X147300000Y-89500000D03*
G04 #@! TD*
G04 #@! TO.C,D208*
X135300000Y-87925000D03*
X135300000Y-89500000D03*
G04 #@! TD*
D10*
G04 #@! TO.C,D407*
X124300000Y-123000000D03*
X124300000Y-121425000D03*
G04 #@! TD*
G04 #@! TO.C,D502*
X203600000Y-123000000D03*
X203600000Y-121425000D03*
G04 #@! TD*
D12*
G04 #@! TO.C,D210*
X138300000Y-87925000D03*
X138300000Y-89500000D03*
G04 #@! TD*
D16*
G04 #@! TO.C,C504*
X200100000Y-112275000D03*
X200100000Y-110725000D03*
G04 #@! TD*
D12*
G04 #@! TO.C,D206*
X132300000Y-87925000D03*
X132300000Y-89500000D03*
G04 #@! TD*
D18*
G04 #@! TO.C,R317*
X215600000Y-98675000D03*
X215600000Y-100325000D03*
G04 #@! TD*
D19*
G04 #@! TO.C,D317*
X170700000Y-86500000D03*
X175000000Y-86500000D03*
G04 #@! TD*
D17*
G04 #@! TO.C,U301*
X183600000Y-90700000D03*
X184250000Y-90700000D03*
X184900000Y-90700000D03*
X185550000Y-90700000D03*
X186200000Y-90700000D03*
X186850000Y-90700000D03*
X187500000Y-90700000D03*
X188150000Y-90700000D03*
X188800000Y-90700000D03*
X188800000Y-85300000D03*
X188150000Y-85300000D03*
X187500000Y-85300000D03*
X186850000Y-85300000D03*
X186200000Y-85300000D03*
X185550000Y-85300000D03*
X184900000Y-85300000D03*
X184250000Y-85300000D03*
X183600000Y-85300000D03*
G04 #@! TD*
D15*
G04 #@! TO.C,R103*
X82485000Y-98000000D03*
X80835000Y-98000000D03*
G04 #@! TD*
D20*
G04 #@! TO.C,C502*
X232100000Y-117000000D03*
X225600000Y-117000000D03*
G04 #@! TD*
D10*
G04 #@! TO.C,D508*
X194600000Y-123000000D03*
X194600000Y-121425000D03*
G04 #@! TD*
D16*
G04 #@! TO.C,C408*
X98325000Y-121775000D03*
X98325000Y-120225000D03*
G04 #@! TD*
D17*
G04 #@! TO.C,U203*
X152750000Y-90700000D03*
X153400000Y-90700000D03*
X154050000Y-90700000D03*
X154700000Y-90700000D03*
X155350000Y-90700000D03*
X156000000Y-90700000D03*
X156650000Y-90700000D03*
X157300000Y-90700000D03*
X157950000Y-90700000D03*
X157950000Y-85300000D03*
X157300000Y-85300000D03*
X156650000Y-85300000D03*
X156000000Y-85300000D03*
X155350000Y-85300000D03*
X154700000Y-85300000D03*
X154050000Y-85300000D03*
X153400000Y-85300000D03*
X152750000Y-85300000D03*
G04 #@! TD*
D21*
G04 #@! TO.C,U502*
X197350000Y-117725000D03*
X197350000Y-117075000D03*
X197350000Y-116425000D03*
X197350000Y-115775000D03*
X197350000Y-115125000D03*
X197350000Y-114475000D03*
X197350000Y-113825000D03*
X197350000Y-113175000D03*
X197350000Y-112525000D03*
X197350000Y-111875000D03*
X197350000Y-111225000D03*
X197350000Y-110575000D03*
X197350000Y-109925000D03*
X197350000Y-109275000D03*
X190350000Y-109275000D03*
X190350000Y-109925000D03*
X190350000Y-110575000D03*
X190350000Y-111225000D03*
X190350000Y-111875000D03*
X190350000Y-112525000D03*
X190350000Y-113175000D03*
X190350000Y-113825000D03*
X190350000Y-114475000D03*
X190350000Y-115125000D03*
X190350000Y-115775000D03*
X190350000Y-116425000D03*
X190350000Y-117075000D03*
X190350000Y-117725000D03*
G04 #@! TD*
D16*
G04 #@! TO.C,C503*
X201600000Y-112275000D03*
X201600000Y-110725000D03*
G04 #@! TD*
D12*
G04 #@! TO.C,D205*
X130800000Y-87925000D03*
X130800000Y-89500000D03*
G04 #@! TD*
G04 #@! TO.C,D213*
X142800000Y-87925000D03*
X142800000Y-89500000D03*
G04 #@! TD*
D11*
G04 #@! TO.C,C104*
X97000000Y-102225000D03*
X97000000Y-103775000D03*
G04 #@! TD*
D12*
G04 #@! TO.C,D309*
X208600000Y-87925000D03*
X208600000Y-89500000D03*
G04 #@! TD*
D11*
G04 #@! TO.C,C204*
X129800000Y-98725000D03*
X129800000Y-100275000D03*
G04 #@! TD*
D18*
G04 #@! TO.C,R217*
X143800000Y-98675000D03*
X143800000Y-100325000D03*
G04 #@! TD*
D10*
G04 #@! TO.C,D403*
X130300000Y-123000000D03*
X130300000Y-121425000D03*
G04 #@! TD*
D12*
G04 #@! TO.C,D311*
X211600000Y-87925000D03*
X211600000Y-89500000D03*
G04 #@! TD*
D18*
G04 #@! TO.C,R101*
X112800000Y-110675000D03*
X112800000Y-112325000D03*
G04 #@! TD*
D10*
G04 #@! TO.C,D514*
X185600000Y-123000000D03*
X185600000Y-121425000D03*
G04 #@! TD*
D11*
G04 #@! TO.C,C304*
X201600000Y-98725000D03*
X201600000Y-100275000D03*
G04 #@! TD*
D12*
G04 #@! TO.C,D301*
X196600000Y-87925000D03*
X196600000Y-89500000D03*
G04 #@! TD*
D10*
G04 #@! TO.C,D404*
X128800000Y-123000000D03*
X128800000Y-121425000D03*
G04 #@! TD*
D13*
G04 #@! TO.C,RN303*
X224987500Y-94900000D03*
D14*
X225575000Y-94900000D03*
X226075000Y-94900000D03*
X226575000Y-94900000D03*
X227075000Y-94900000D03*
X227575000Y-94900000D03*
X228075000Y-94900000D03*
D13*
X228662500Y-94900000D03*
X228662500Y-93100000D03*
D14*
X228075000Y-93100000D03*
X227575000Y-93100000D03*
X227075000Y-93100000D03*
X226575000Y-93100000D03*
X226075000Y-93100000D03*
X225575000Y-93100000D03*
D13*
X224987500Y-93100000D03*
G04 #@! TD*
G04 #@! TO.C,RN403*
X104912500Y-116100000D03*
D14*
X104325000Y-116100000D03*
X103825000Y-116100000D03*
X103325000Y-116100000D03*
X102825000Y-116100000D03*
X102325000Y-116100000D03*
X101825000Y-116100000D03*
D13*
X101237500Y-116100000D03*
X101237500Y-117900000D03*
D14*
X101825000Y-117900000D03*
X102325000Y-117900000D03*
X102825000Y-117900000D03*
X103325000Y-117900000D03*
X103825000Y-117900000D03*
X104325000Y-117900000D03*
D13*
X104912500Y-117900000D03*
G04 #@! TD*
D16*
G04 #@! TO.C,C407*
X96825000Y-121775000D03*
X96825000Y-120225000D03*
G04 #@! TD*
D12*
G04 #@! TO.C,D211*
X139800000Y-87925000D03*
X139800000Y-89500000D03*
G04 #@! TD*
D22*
G04 #@! TO.C,C101*
X79685000Y-94500000D03*
X82635000Y-94500000D03*
G04 #@! TD*
D11*
G04 #@! TO.C,C205*
X120325000Y-89225000D03*
X120325000Y-90775000D03*
G04 #@! TD*
D12*
G04 #@! TO.C,D303*
X199600000Y-87925000D03*
X199600000Y-89500000D03*
G04 #@! TD*
G04 #@! TO.C,D203*
X127800000Y-87925000D03*
X127800000Y-89500000D03*
G04 #@! TD*
D13*
G04 #@! TO.C,RN501*
X217662500Y-116100000D03*
D14*
X217075000Y-116100000D03*
X216575000Y-116100000D03*
X216075000Y-116100000D03*
X215575000Y-116100000D03*
X215075000Y-116100000D03*
X214575000Y-116100000D03*
D13*
X213987500Y-116100000D03*
X213987500Y-117900000D03*
D14*
X214575000Y-117900000D03*
X215075000Y-117900000D03*
X215575000Y-117900000D03*
X216075000Y-117900000D03*
X216575000Y-117900000D03*
X217075000Y-117900000D03*
D13*
X217662500Y-117900000D03*
G04 #@! TD*
D11*
G04 #@! TO.C,C208*
X159775000Y-89225000D03*
X159775000Y-90775000D03*
G04 #@! TD*
D16*
G04 #@! TO.C,C404*
X128300000Y-112275000D03*
X128300000Y-110725000D03*
G04 #@! TD*
D23*
G04 #@! TO.C,R517*
X186100000Y-112325000D03*
X186100000Y-110675000D03*
G04 #@! TD*
D10*
G04 #@! TO.C,D413*
X115300000Y-123000000D03*
X115300000Y-121425000D03*
G04 #@! TD*
D17*
G04 #@! TO.C,U503*
X177150000Y-120300000D03*
X176500000Y-120300000D03*
X175850000Y-120300000D03*
X175200000Y-120300000D03*
X174550000Y-120300000D03*
X173900000Y-120300000D03*
X173250000Y-120300000D03*
X172600000Y-120300000D03*
X171950000Y-120300000D03*
X171950000Y-125700000D03*
X172600000Y-125700000D03*
X173250000Y-125700000D03*
X173900000Y-125700000D03*
X174550000Y-125700000D03*
X175200000Y-125700000D03*
X175850000Y-125700000D03*
X176500000Y-125700000D03*
X177150000Y-125700000D03*
G04 #@! TD*
D16*
G04 #@! TO.C,C405*
X137775000Y-121775000D03*
X137775000Y-120225000D03*
G04 #@! TD*
D10*
G04 #@! TO.C,D409*
X121300000Y-123000000D03*
X121300000Y-121425000D03*
G04 #@! TD*
D16*
G04 #@! TO.C,C506*
X211075000Y-121775000D03*
X211075000Y-120225000D03*
G04 #@! TD*
D15*
G04 #@! TO.C,R218*
X130125000Y-102500000D03*
X128475000Y-102500000D03*
G04 #@! TD*
D13*
G04 #@! TO.C,RN301*
X184037500Y-94900000D03*
D14*
X184625000Y-94900000D03*
X185125000Y-94900000D03*
X185625000Y-94900000D03*
X186125000Y-94900000D03*
X186625000Y-94900000D03*
X187125000Y-94900000D03*
D13*
X187712500Y-94900000D03*
X187712500Y-93100000D03*
D14*
X187125000Y-93100000D03*
X186625000Y-93100000D03*
X186125000Y-93100000D03*
X185625000Y-93100000D03*
X185125000Y-93100000D03*
X184625000Y-93100000D03*
D13*
X184037500Y-93100000D03*
G04 #@! TD*
G04 #@! TO.C,RN503*
X176712500Y-116100000D03*
D14*
X176125000Y-116100000D03*
X175625000Y-116100000D03*
X175125000Y-116100000D03*
X174625000Y-116100000D03*
X174125000Y-116100000D03*
X173625000Y-116100000D03*
D13*
X173037500Y-116100000D03*
X173037500Y-117900000D03*
D14*
X173625000Y-117900000D03*
X174125000Y-117900000D03*
X174625000Y-117900000D03*
X175125000Y-117900000D03*
X175625000Y-117900000D03*
X176125000Y-117900000D03*
D13*
X176712500Y-117900000D03*
G04 #@! TD*
D17*
G04 #@! TO.C,U501*
X218100000Y-120300000D03*
X217450000Y-120300000D03*
X216800000Y-120300000D03*
X216150000Y-120300000D03*
X215500000Y-120300000D03*
X214850000Y-120300000D03*
X214200000Y-120300000D03*
X213550000Y-120300000D03*
X212900000Y-120300000D03*
X212900000Y-125700000D03*
X213550000Y-125700000D03*
X214200000Y-125700000D03*
X214850000Y-125700000D03*
X215500000Y-125700000D03*
X216150000Y-125700000D03*
X216800000Y-125700000D03*
X217450000Y-125700000D03*
X218100000Y-125700000D03*
G04 #@! TD*
D10*
G04 #@! TO.C,D505*
X199100000Y-123000000D03*
X199100000Y-121425000D03*
G04 #@! TD*
G04 #@! TO.C,D411*
X118300000Y-123000000D03*
X118300000Y-121425000D03*
G04 #@! TD*
D12*
G04 #@! TO.C,D212*
X141300000Y-87925000D03*
X141300000Y-89500000D03*
G04 #@! TD*
D13*
G04 #@! TO.C,RN203*
X153187500Y-94900000D03*
D14*
X153775000Y-94900000D03*
X154275000Y-94900000D03*
X154775000Y-94900000D03*
X155275000Y-94900000D03*
X155775000Y-94900000D03*
X156275000Y-94900000D03*
D13*
X156862500Y-94900000D03*
X156862500Y-93100000D03*
D14*
X156275000Y-93100000D03*
X155775000Y-93100000D03*
X155275000Y-93100000D03*
X154775000Y-93100000D03*
X154275000Y-93100000D03*
X153775000Y-93100000D03*
D13*
X153187500Y-93100000D03*
G04 #@! TD*
D11*
G04 #@! TO.C,C301*
X214100000Y-98725000D03*
X214100000Y-100275000D03*
G04 #@! TD*
D12*
G04 #@! TO.C,D204*
X129300000Y-87925000D03*
X129300000Y-89500000D03*
G04 #@! TD*
D10*
G04 #@! TO.C,D504*
X200600000Y-123000000D03*
X200600000Y-121425000D03*
G04 #@! TD*
D17*
G04 #@! TO.C,U303*
X224550000Y-90700000D03*
X225200000Y-90700000D03*
X225850000Y-90700000D03*
X226500000Y-90700000D03*
X227150000Y-90700000D03*
X227800000Y-90700000D03*
X228450000Y-90700000D03*
X229100000Y-90700000D03*
X229750000Y-90700000D03*
X229750000Y-85300000D03*
X229100000Y-85300000D03*
X228450000Y-85300000D03*
X227800000Y-85300000D03*
X227150000Y-85300000D03*
X226500000Y-85300000D03*
X225850000Y-85300000D03*
X225200000Y-85300000D03*
X224550000Y-85300000D03*
G04 #@! TD*
D11*
G04 #@! TO.C,C306*
X190625000Y-89225000D03*
X190625000Y-90775000D03*
G04 #@! TD*
D17*
G04 #@! TO.C,U403*
X105350000Y-120300000D03*
X104700000Y-120300000D03*
X104050000Y-120300000D03*
X103400000Y-120300000D03*
X102750000Y-120300000D03*
X102100000Y-120300000D03*
X101450000Y-120300000D03*
X100800000Y-120300000D03*
X100150000Y-120300000D03*
X100150000Y-125700000D03*
X100800000Y-125700000D03*
X101450000Y-125700000D03*
X102100000Y-125700000D03*
X102750000Y-125700000D03*
X103400000Y-125700000D03*
X104050000Y-125700000D03*
X104700000Y-125700000D03*
X105350000Y-125700000D03*
G04 #@! TD*
D24*
G04 #@! TO.C,D517*
X231000000Y-124500000D03*
X226700000Y-124500000D03*
G04 #@! TD*
D10*
G04 #@! TO.C,D510*
X191600000Y-123000000D03*
X191600000Y-121425000D03*
G04 #@! TD*
G04 #@! TO.C,D506*
X197600000Y-123000000D03*
X197600000Y-121425000D03*
G04 #@! TD*
D11*
G04 #@! TO.C,C305*
X192125000Y-89225000D03*
X192125000Y-90775000D03*
G04 #@! TD*
D25*
G04 #@! TO.C,U302*
X204350000Y-93275000D03*
X204350000Y-93925000D03*
X204350000Y-94575000D03*
X204350000Y-95225000D03*
X204350000Y-95875000D03*
X204350000Y-96525000D03*
X204350000Y-97175000D03*
X204350000Y-97825000D03*
X204350000Y-98475000D03*
X204350000Y-99125000D03*
X204350000Y-99775000D03*
X204350000Y-100425000D03*
X204350000Y-101075000D03*
X204350000Y-101725000D03*
X211350000Y-101725000D03*
X211350000Y-101075000D03*
X211350000Y-100425000D03*
X211350000Y-99775000D03*
X211350000Y-99125000D03*
X211350000Y-98475000D03*
X211350000Y-97825000D03*
X211350000Y-97175000D03*
X211350000Y-96525000D03*
X211350000Y-95875000D03*
X211350000Y-95225000D03*
X211350000Y-94575000D03*
X211350000Y-93925000D03*
X211350000Y-93275000D03*
G04 #@! TD*
D10*
G04 #@! TO.C,D406*
X125800000Y-123000000D03*
X125800000Y-121425000D03*
G04 #@! TD*
G04 #@! TO.C,D410*
X119800000Y-123000000D03*
X119800000Y-121425000D03*
G04 #@! TD*
G04 #@! TO.C,D509*
X193100000Y-123000000D03*
X193100000Y-121425000D03*
G04 #@! TD*
D11*
G04 #@! TO.C,C307*
X233075000Y-89225000D03*
X233075000Y-90775000D03*
G04 #@! TD*
D10*
G04 #@! TO.C,D414*
X113800000Y-123000000D03*
X113800000Y-121425000D03*
G04 #@! TD*
D26*
G04 #@! TO.C,C302*
X169600000Y-94000000D03*
X176100000Y-94000000D03*
G04 #@! TD*
D12*
G04 #@! TO.C,D307*
X205600000Y-87925000D03*
X205600000Y-89500000D03*
G04 #@! TD*
D16*
G04 #@! TO.C,C401*
X115800000Y-112275000D03*
X115800000Y-110725000D03*
G04 #@! TD*
D26*
G04 #@! TO.C,C202*
X97800000Y-94000000D03*
X104300000Y-94000000D03*
G04 #@! TD*
D12*
G04 #@! TO.C,D316*
X219100000Y-87925000D03*
X219100000Y-89500000D03*
G04 #@! TD*
D11*
G04 #@! TO.C,C207*
X161275000Y-89225000D03*
X161275000Y-90775000D03*
G04 #@! TD*
D10*
G04 #@! TO.C,D515*
X184100000Y-123000000D03*
X184100000Y-121425000D03*
G04 #@! TD*
G04 #@! TO.C,D511*
X190100000Y-123000000D03*
X190100000Y-121425000D03*
G04 #@! TD*
D16*
G04 #@! TO.C,C403*
X129800000Y-112275000D03*
X129800000Y-110725000D03*
G04 #@! TD*
D27*
G04 #@! TO.C,R518*
X199775000Y-108500000D03*
X201425000Y-108500000D03*
G04 #@! TD*
D11*
G04 #@! TO.C,C303*
X200100000Y-98725000D03*
X200100000Y-100275000D03*
G04 #@! TD*
D12*
G04 #@! TO.C,D202*
X126300000Y-87925000D03*
X126300000Y-89500000D03*
G04 #@! TD*
G04 #@! TO.C,D310*
X210100000Y-87925000D03*
X210100000Y-89500000D03*
G04 #@! TD*
G04 #@! TO.C,D207*
X133800000Y-87925000D03*
X133800000Y-89500000D03*
G04 #@! TD*
D10*
G04 #@! TO.C,D412*
X116800000Y-123000000D03*
X116800000Y-121425000D03*
G04 #@! TD*
D16*
G04 #@! TO.C,C505*
X209575000Y-121775000D03*
X209575000Y-120225000D03*
G04 #@! TD*
D23*
G04 #@! TO.C,R417*
X114300000Y-112325000D03*
X114300000Y-110675000D03*
G04 #@! TD*
D12*
G04 #@! TO.C,D308*
X207100000Y-87925000D03*
X207100000Y-89500000D03*
G04 #@! TD*
D25*
G04 #@! TO.C,U202*
X132550000Y-93275000D03*
X132550000Y-93925000D03*
X132550000Y-94575000D03*
X132550000Y-95225000D03*
X132550000Y-95875000D03*
X132550000Y-96525000D03*
X132550000Y-97175000D03*
X132550000Y-97825000D03*
X132550000Y-98475000D03*
X132550000Y-99125000D03*
X132550000Y-99775000D03*
X132550000Y-100425000D03*
X132550000Y-101075000D03*
X132550000Y-101725000D03*
X139550000Y-101725000D03*
X139550000Y-101075000D03*
X139550000Y-100425000D03*
X139550000Y-99775000D03*
X139550000Y-99125000D03*
X139550000Y-98475000D03*
X139550000Y-97825000D03*
X139550000Y-97175000D03*
X139550000Y-96525000D03*
X139550000Y-95875000D03*
X139550000Y-95225000D03*
X139550000Y-94575000D03*
X139550000Y-93925000D03*
X139550000Y-93275000D03*
G04 #@! TD*
D21*
G04 #@! TO.C,U402*
X125550000Y-117725000D03*
X125550000Y-117075000D03*
X125550000Y-116425000D03*
X125550000Y-115775000D03*
X125550000Y-115125000D03*
X125550000Y-114475000D03*
X125550000Y-113825000D03*
X125550000Y-113175000D03*
X125550000Y-112525000D03*
X125550000Y-111875000D03*
X125550000Y-111225000D03*
X125550000Y-110575000D03*
X125550000Y-109925000D03*
X125550000Y-109275000D03*
X118550000Y-109275000D03*
X118550000Y-109925000D03*
X118550000Y-110575000D03*
X118550000Y-111225000D03*
X118550000Y-111875000D03*
X118550000Y-112525000D03*
X118550000Y-113175000D03*
X118550000Y-113825000D03*
X118550000Y-114475000D03*
X118550000Y-115125000D03*
X118550000Y-115775000D03*
X118550000Y-116425000D03*
X118550000Y-117075000D03*
X118550000Y-117725000D03*
G04 #@! TD*
D12*
G04 #@! TO.C,D214*
X144300000Y-87925000D03*
X144300000Y-89500000D03*
G04 #@! TD*
D28*
G04 #@! TO.C,U103*
X101275000Y-102075000D03*
X101275000Y-102725000D03*
X101275000Y-103375000D03*
X101275000Y-104025000D03*
X101275000Y-104675000D03*
X101275000Y-105325000D03*
X101275000Y-105975000D03*
X101275000Y-106625000D03*
X101275000Y-107275000D03*
X101275000Y-107925000D03*
X107000000Y-107925000D03*
X107000000Y-107275000D03*
X107000000Y-106625000D03*
X107000000Y-105975000D03*
X107000000Y-105325000D03*
X107000000Y-104675000D03*
X107000000Y-104025000D03*
X107000000Y-103375000D03*
X107000000Y-102725000D03*
X107000000Y-102075000D03*
G04 #@! TD*
D13*
G04 #@! TO.C,RN201*
X112237500Y-94900000D03*
D14*
X112825000Y-94900000D03*
X113325000Y-94900000D03*
X113825000Y-94900000D03*
X114325000Y-94900000D03*
X114825000Y-94900000D03*
X115325000Y-94900000D03*
D13*
X115912500Y-94900000D03*
X115912500Y-93100000D03*
D14*
X115325000Y-93100000D03*
X114825000Y-93100000D03*
X114325000Y-93100000D03*
X113825000Y-93100000D03*
X113325000Y-93100000D03*
X112825000Y-93100000D03*
D13*
X112237500Y-93100000D03*
G04 #@! TD*
D10*
G04 #@! TO.C,D415*
X112300000Y-123000000D03*
X112300000Y-121425000D03*
G04 #@! TD*
G04 #@! TO.C,D516*
X182600000Y-123000000D03*
X182600000Y-121425000D03*
G04 #@! TD*
D29*
G04 #@! TO.C,C102*
X87715000Y-94500000D03*
X84765000Y-94500000D03*
G04 #@! TD*
D12*
G04 #@! TO.C,D315*
X217600000Y-87925000D03*
X217600000Y-89500000D03*
G04 #@! TD*
G04 #@! TO.C,D314*
X216100000Y-87925000D03*
X216100000Y-89500000D03*
G04 #@! TD*
D10*
G04 #@! TO.C,D503*
X202100000Y-123000000D03*
X202100000Y-121425000D03*
G04 #@! TD*
D12*
G04 #@! TO.C,D302*
X198100000Y-87925000D03*
X198100000Y-89500000D03*
G04 #@! TD*
D10*
G04 #@! TO.C,D402*
X131800000Y-123000000D03*
X131800000Y-121425000D03*
G04 #@! TD*
G04 #@! TO.C,D512*
X188600000Y-123000000D03*
X188600000Y-121425000D03*
G04 #@! TD*
D20*
G04 #@! TO.C,C402*
X160300000Y-117000000D03*
X153800000Y-117000000D03*
G04 #@! TD*
D10*
G04 #@! TO.C,D513*
X187100000Y-123000000D03*
X187100000Y-121425000D03*
G04 #@! TD*
D12*
G04 #@! TO.C,D304*
X201100000Y-87925000D03*
X201100000Y-89500000D03*
G04 #@! TD*
D16*
G04 #@! TO.C,C507*
X168625000Y-121775000D03*
X168625000Y-120225000D03*
G04 #@! TD*
D19*
G04 #@! TO.C,D217*
X98900000Y-86500000D03*
X103200000Y-86500000D03*
G04 #@! TD*
D24*
G04 #@! TO.C,D417*
X159200000Y-124500000D03*
X154900000Y-124500000D03*
G04 #@! TD*
D11*
G04 #@! TO.C,C105*
X98500000Y-102225000D03*
X98500000Y-103775000D03*
G04 #@! TD*
D16*
G04 #@! TO.C,C106*
X95500000Y-103775000D03*
X95500000Y-102225000D03*
G04 #@! TD*
D11*
G04 #@! TO.C,C308*
X231575000Y-89225000D03*
X231575000Y-90775000D03*
G04 #@! TD*
D16*
G04 #@! TO.C,C508*
X170125000Y-121775000D03*
X170125000Y-120225000D03*
G04 #@! TD*
D30*
G04 #@! TO.C,D102*
X84952500Y-98000000D03*
X86527500Y-98000000D03*
G04 #@! TD*
D17*
G04 #@! TO.C,U401*
X146300000Y-120300000D03*
X145650000Y-120300000D03*
X145000000Y-120300000D03*
X144350000Y-120300000D03*
X143700000Y-120300000D03*
X143050000Y-120300000D03*
X142400000Y-120300000D03*
X141750000Y-120300000D03*
X141100000Y-120300000D03*
X141100000Y-125700000D03*
X141750000Y-125700000D03*
X142400000Y-125700000D03*
X143050000Y-125700000D03*
X143700000Y-125700000D03*
X144350000Y-125700000D03*
X145000000Y-125700000D03*
X145650000Y-125700000D03*
X146300000Y-125700000D03*
G04 #@! TD*
D12*
G04 #@! TO.C,D305*
X202600000Y-87925000D03*
X202600000Y-89500000D03*
G04 #@! TD*
G04 #@! TO.C,D215*
X145800000Y-87925000D03*
X145800000Y-89500000D03*
G04 #@! TD*
D10*
G04 #@! TO.C,D501*
X205100000Y-123000000D03*
X205100000Y-121425000D03*
G04 #@! TD*
D16*
G04 #@! TO.C,C406*
X139275000Y-121775000D03*
X139275000Y-120225000D03*
G04 #@! TD*
D11*
G04 #@! TO.C,C201*
X142300000Y-98725000D03*
X142300000Y-100275000D03*
G04 #@! TD*
D12*
G04 #@! TO.C,D209*
X136800000Y-87925000D03*
X136800000Y-89500000D03*
G04 #@! TD*
D27*
G04 #@! TO.C,R418*
X127975000Y-108500000D03*
X129625000Y-108500000D03*
G04 #@! TD*
D12*
G04 #@! TO.C,D313*
X214600000Y-87925000D03*
X214600000Y-89500000D03*
G04 #@! TD*
M02*
