M48
; DRILL file {KiCad 9.0.6} date 2025-12-09T20:29:43+0100
; FORMAT={-:-/ absolute / metric / decimal}
; #@! TF.CreationDate,2025-12-09T20:29:43+01:00
; #@! TF.GenerationSoftware,Kicad,Pcbnew,9.0.6
; #@! TF.FileFunction,MixedPlating,1,2
FMAT,2
METRIC
; #@! TA.AperFunction,Plated,PTH,ViaDrill
T1C0.300
; #@! TA.AperFunction,Plated,PTH,ComponentDrill
T2C0.650
; #@! TA.AperFunction,Plated,PTH,ComponentDrill
T3C1.000
; #@! TA.AperFunction,Plated,PTH,ComponentDrill
T4C1.200
%
G90
G05
T1
X90.55Y-107.275
X91.0Y-102.075
X91.525Y-98.225
X91.525Y-99.225
X91.525Y-106.625
X92.0Y-102.075
X92.5Y-107.925
X94.35Y-100.0
X94.35Y-103.425
X94.35Y-105.225
X95.0Y-119.0
X95.5Y-101.0
X96.0Y-119.0
X97.0Y-119.0
X97.05Y-105.325
X98.0Y-119.0
X99.522Y-114.503
X100.022Y-115.303
X100.522Y-114.503
X101.022Y-115.303
X101.522Y-114.503
X102.022Y-115.303
X102.522Y-114.503
X103.0Y-102.075
X103.0Y-103.075
X103.0Y-104.075
X103.0Y-105.075
X103.0Y-106.075
X103.0Y-107.075
X103.0Y-108.075
X103.022Y-115.303
X103.5Y-85.5
X103.5Y-86.5
X103.5Y-87.5
X104.0Y-102.075
X104.0Y-103.075
X104.0Y-104.075
X104.0Y-105.075
X104.0Y-106.075
X104.0Y-107.075
X104.0Y-108.075
X104.5Y-85.5
X104.5Y-86.5
X104.5Y-87.5
X105.0Y-93.0
X105.0Y-94.0
X105.0Y-95.0
X105.0Y-102.075
X105.0Y-103.075
X105.0Y-104.075
X105.0Y-105.075
X105.0Y-106.075
X105.0Y-107.075
X105.0Y-108.075
X105.5Y-85.5
X105.5Y-86.5
X105.5Y-87.5
X106.0Y-93.0
X106.0Y-94.0
X106.0Y-95.0
X107.0Y-93.0
X107.0Y-94.0
X107.0Y-95.0
X109.0Y-103.5
X109.0Y-124.0
X110.0Y-102.736
X110.5Y-124.0
X110.525Y-96.5
X111.025Y-95.7
X111.525Y-96.5
X112.0Y-124.0
X112.025Y-95.7
X112.5Y-104.0
X112.5Y-107.0
X112.525Y-96.5
X113.025Y-95.7
X113.5Y-124.0
X113.525Y-96.5
X114.0Y-108.5
X114.0Y-109.5
X114.025Y-95.7
X115.0Y-124.0
X115.5Y-92.0
X116.5Y-92.0
X116.5Y-124.0
X117.5Y-92.0
X118.0Y-124.0
X118.5Y-92.0
X118.5Y-109.0
X118.5Y-110.0
X118.5Y-111.0
X118.5Y-112.0
X118.5Y-113.0
X118.5Y-114.0
X118.5Y-115.0
X118.5Y-116.0
X118.5Y-117.0
X118.5Y-118.0
X119.5Y-109.0
X119.5Y-110.0
X119.5Y-111.0
X119.5Y-112.0
X119.5Y-113.0
X119.5Y-114.0
X119.5Y-115.0
X119.5Y-116.0
X119.5Y-117.0
X119.5Y-118.0
X119.5Y-124.0
X120.5Y-106.25
X120.5Y-108.0
X120.5Y-110.0
X120.5Y-111.0
X120.5Y-112.0
X120.5Y-113.0
X120.5Y-114.0
X120.5Y-115.0
X120.5Y-116.0
X120.5Y-117.0
X120.5Y-118.0
X121.0Y-124.0
X121.5Y-105.75
X121.5Y-108.0
X121.5Y-111.0
X121.5Y-112.0
X121.5Y-113.0
X121.5Y-114.0
X121.5Y-115.0
X121.5Y-116.0
X121.5Y-117.0
X121.5Y-118.0
X122.5Y-104.75
X122.5Y-108.0
X122.5Y-124.0
X123.0Y-87.0
X124.0Y-124.0
X124.5Y-87.0
X125.5Y-124.0
X126.0Y-87.0
X126.0Y-102.5
X126.0Y-105.25
X127.0Y-124.0
X127.5Y-87.0
X128.5Y-105.25
X128.5Y-108.5
X128.5Y-124.0
X129.0Y-87.0
X130.0Y-124.0
X130.5Y-87.0
X131.5Y-124.0
X132.0Y-87.0
X132.0Y-103.0
X132.0Y-104.75
X133.0Y-93.0
X133.0Y-94.0
X133.0Y-95.0
X133.0Y-96.0
X133.0Y-97.0
X133.0Y-98.0
X133.0Y-99.0
X133.0Y-100.0
X133.0Y-103.0
X133.0Y-105.75
X133.5Y-87.0
X134.0Y-93.0
X134.0Y-94.0
X134.0Y-95.0
X134.0Y-96.0
X134.0Y-97.0
X134.0Y-98.0
X134.0Y-99.0
X134.0Y-100.0
X134.0Y-101.0
X134.0Y-103.0
X134.0Y-106.25
X135.0Y-87.0
X135.0Y-93.0
X135.0Y-94.0
X135.0Y-95.0
X135.0Y-96.0
X135.0Y-97.0
X135.0Y-98.0
X135.0Y-99.0
X135.0Y-100.0
X135.0Y-101.0
X135.0Y-102.0
X136.0Y-93.0
X136.0Y-94.0
X136.0Y-95.0
X136.0Y-96.0
X136.0Y-97.0
X136.0Y-98.0
X136.0Y-99.0
X136.0Y-100.0
X136.0Y-101.0
X136.0Y-102.0
X136.0Y-119.0
X136.5Y-87.0
X137.0Y-119.0
X138.0Y-87.0
X138.0Y-119.0
X139.0Y-119.0
X139.5Y-87.0
X140.472Y-115.303
X140.5Y-101.5
X140.5Y-102.5
X140.972Y-114.503
X141.0Y-87.0
X141.472Y-115.303
X141.972Y-114.503
X142.472Y-115.303
X142.5Y-87.0
X142.972Y-114.503
X143.472Y-115.303
X143.972Y-114.503
X144.0Y-87.0
X145.5Y-87.0
X147.5Y-116.0
X147.5Y-117.0
X147.5Y-118.0
X148.5Y-116.0
X148.5Y-117.0
X148.5Y-118.0
X149.0Y-123.5
X149.0Y-124.5
X149.0Y-125.5
X149.5Y-116.0
X149.5Y-117.0
X149.5Y-118.0
X150.0Y-123.5
X150.0Y-124.5
X150.0Y-125.5
X151.0Y-123.5
X151.0Y-124.5
X151.0Y-125.5
X151.475Y-95.7
X151.975Y-96.5
X152.475Y-95.7
X152.975Y-96.5
X153.475Y-95.7
X153.975Y-96.5
X154.475Y-95.7
X154.975Y-96.5
X156.5Y-92.0
X157.5Y-92.0
X158.5Y-92.0
X159.5Y-92.0
X165.0Y-119.0
X166.0Y-119.0
X167.0Y-119.0
X168.0Y-119.0
X169.522Y-114.503
X170.022Y-115.303
X170.522Y-114.503
X171.022Y-115.303
X171.522Y-114.503
X172.022Y-115.303
X172.522Y-114.503
X173.022Y-115.303
X173.5Y-85.5
X173.5Y-86.5
X173.5Y-87.5
X174.5Y-85.5
X174.5Y-86.5
X174.5Y-87.5
X175.0Y-93.0
X175.0Y-94.0
X175.0Y-95.0
X175.5Y-85.5
X175.5Y-86.5
X175.5Y-87.5
X176.0Y-93.0
X176.0Y-94.0
X176.0Y-95.0
X177.0Y-93.0
X177.0Y-94.0
X177.0Y-95.0
X179.0Y-124.0
X180.5Y-124.0
X180.525Y-96.5
X181.025Y-95.7
X181.525Y-96.5
X182.0Y-124.0
X182.025Y-95.7
X182.525Y-96.5
X183.025Y-95.7
X183.5Y-124.0
X183.525Y-96.5
X184.0Y-108.5
X184.0Y-109.5
X184.025Y-95.7
X185.0Y-124.0
X185.5Y-92.0
X186.5Y-92.0
X186.5Y-124.0
X187.5Y-92.0
X188.0Y-124.0
X188.5Y-92.0
X188.5Y-109.0
X188.5Y-110.0
X188.5Y-111.0
X188.5Y-112.0
X188.5Y-113.0
X188.5Y-114.0
X188.5Y-115.0
X188.5Y-116.0
X188.5Y-117.0
X188.5Y-118.0
X189.5Y-109.0
X189.5Y-110.0
X189.5Y-111.0
X189.5Y-112.0
X189.5Y-113.0
X189.5Y-114.0
X189.5Y-115.0
X189.5Y-116.0
X189.5Y-117.0
X189.5Y-118.0
X189.5Y-124.0
X190.5Y-106.25
X190.5Y-108.0
X190.5Y-110.0
X190.5Y-111.0
X190.5Y-112.0
X190.5Y-113.0
X190.5Y-114.0
X190.5Y-115.0
X190.5Y-116.0
X190.5Y-117.0
X190.5Y-118.0
X191.0Y-124.0
X191.5Y-105.75
X191.5Y-108.0
X191.5Y-111.0
X191.5Y-112.0
X191.5Y-113.0
X191.5Y-114.0
X191.5Y-115.0
X191.5Y-116.0
X191.5Y-117.0
X191.5Y-118.0
X192.5Y-104.75
X192.5Y-108.0
X192.5Y-124.0
X193.0Y-87.0
X194.0Y-124.0
X194.5Y-87.0
X195.5Y-124.0
X196.0Y-87.0
X196.0Y-102.5
X196.0Y-105.25
X197.0Y-124.0
X197.5Y-87.0
X198.5Y-105.25
X198.5Y-108.5
X198.5Y-124.0
X199.0Y-87.0
X200.0Y-124.0
X200.5Y-87.0
X201.5Y-124.0
X202.0Y-87.0
X202.0Y-103.0
X202.0Y-104.75
X203.0Y-93.0
X203.0Y-94.0
X203.0Y-95.0
X203.0Y-96.0
X203.0Y-97.0
X203.0Y-98.0
X203.0Y-99.0
X203.0Y-100.0
X203.0Y-103.0
X203.0Y-105.75
X203.5Y-87.0
X204.0Y-93.0
X204.0Y-94.0
X204.0Y-95.0
X204.0Y-96.0
X204.0Y-97.0
X204.0Y-98.0
X204.0Y-99.0
X204.0Y-100.0
X204.0Y-101.0
X204.0Y-103.0
X204.0Y-106.25
X205.0Y-87.0
X205.0Y-93.0
X205.0Y-94.0
X205.0Y-95.0
X205.0Y-96.0
X205.0Y-97.0
X205.0Y-98.0
X205.0Y-99.0
X205.0Y-100.0
X205.0Y-101.0
X205.0Y-102.0
X206.0Y-93.0
X206.0Y-94.0
X206.0Y-95.0
X206.0Y-96.0
X206.0Y-97.0
X206.0Y-98.0
X206.0Y-99.0
X206.0Y-100.0
X206.0Y-101.0
X206.0Y-102.0
X206.0Y-119.0
X206.5Y-87.0
X207.0Y-119.0
X208.0Y-87.0
X208.0Y-119.0
X209.0Y-119.0
X209.5Y-87.0
X210.472Y-115.303
X210.5Y-101.5
X210.5Y-102.5
X210.972Y-114.503
X211.0Y-87.0
X211.472Y-115.303
X211.972Y-114.503
X212.472Y-115.303
X212.5Y-87.0
X212.972Y-114.503
X213.472Y-115.303
X213.972Y-114.503
X214.0Y-87.0
X215.5Y-87.0
X217.5Y-116.0
X217.5Y-117.0
X217.5Y-118.0
X218.5Y-116.0
X218.5Y-117.0
X218.5Y-118.0
X219.0Y-123.5
X219.0Y-124.5
X219.0Y-125.5
X219.5Y-116.0
X219.5Y-117.0
X219.5Y-118.0
X220.0Y-123.5
X220.0Y-124.5
X220.0Y-125.5
X221.0Y-123.5
X221.0Y-124.5
X221.0Y-125.5
X221.475Y-95.7
X221.975Y-96.5
X222.475Y-95.7
X222.975Y-96.5
X223.475Y-95.7
X223.975Y-96.5
X224.475Y-95.7
X224.975Y-96.5
X226.5Y-92.0
X227.5Y-92.0
X228.5Y-92.0
X229.5Y-92.0
T2
X82.83Y-123.0
X82.83Y-124.27
X84.1Y-123.0
X84.1Y-124.27
X85.37Y-123.0
X85.37Y-124.27
T3
X81.56Y-90.6
X84.1Y-90.6
X86.64Y-90.6
T4
X80.0Y-80.0
X83.5Y-80.0
X87.0Y-80.0
X90.5Y-80.0
X94.0Y-80.0
X94.0Y-131.0
X97.5Y-80.0
X97.5Y-131.0
X101.0Y-80.0
X101.0Y-131.0
X104.5Y-80.0
X104.5Y-131.0
X108.0Y-80.0
X108.0Y-131.0
X111.5Y-80.0
X111.5Y-131.0
X115.0Y-80.0
X115.0Y-131.0
X118.5Y-80.0
X118.5Y-131.0
X122.0Y-80.0
X122.0Y-131.0
X125.5Y-80.0
X125.5Y-131.0
X129.0Y-80.0
X129.0Y-131.0
X132.5Y-80.0
X132.5Y-131.0
X136.0Y-80.0
X136.0Y-131.0
X139.5Y-80.0
X139.5Y-131.0
X143.0Y-80.0
X143.0Y-131.0
X146.5Y-80.0
X146.5Y-131.0
X150.0Y-80.0
X150.0Y-131.0
X153.5Y-80.0
X153.5Y-131.0
X157.0Y-80.0
X157.0Y-131.0
X160.5Y-80.0
X160.5Y-131.0
X164.0Y-80.0
X164.0Y-131.0
X167.5Y-80.0
X167.5Y-131.0
X171.0Y-80.0
X171.0Y-131.0
X174.5Y-80.0
X174.5Y-131.0
X178.0Y-80.0
X178.0Y-131.0
X181.5Y-80.0
X181.5Y-131.0
X185.0Y-80.0
X185.0Y-131.0
X188.5Y-80.0
X188.5Y-131.0
X192.0Y-80.0
X192.0Y-131.0
X195.5Y-80.0
X195.5Y-131.0
X199.0Y-80.0
X199.0Y-131.0
X202.5Y-80.0
X202.5Y-131.0
X206.0Y-80.0
X206.0Y-131.0
X209.5Y-80.0
X209.5Y-131.0
X213.0Y-80.0
X213.0Y-131.0
X216.5Y-80.0
X216.5Y-131.0
X220.0Y-80.0
X220.0Y-131.0
X223.5Y-80.0
X223.5Y-131.0
X227.0Y-80.0
X227.0Y-131.0
X230.5Y-80.0
X230.5Y-131.0
M30
