M48
; DRILL file {KiCad 9.0.6} date 2025-12-08T01:39:46+0100
; FORMAT={-:-/ absolute / metric / decimal}
; #@! TF.CreationDate,2025-12-08T01:39:46+01:00
; #@! TF.GenerationSoftware,Kicad,Pcbnew,9.0.6
; #@! TF.FileFunction,MixedPlating,1,2
FMAT,2
METRIC
; #@! TA.AperFunction,Plated,PTH,ViaDrill
T1C0.300
; #@! TA.AperFunction,Plated,PTH,ComponentDrill
T2C0.650
; #@! TA.AperFunction,Plated,PTH,ComponentDrill
T3C1.000
; #@! TA.AperFunction,Plated,PTH,ComponentDrill
T4C1.200
%
G90
G05
T1
X79.843Y-102.568
X80.293Y-97.368
X80.818Y-93.518
X80.818Y-94.518
X80.818Y-101.918
X81.293Y-97.368
X81.793Y-103.218
X83.643Y-95.293
X83.643Y-98.718
X83.643Y-100.518
X84.293Y-114.293
X84.793Y-96.293
X85.293Y-114.293
X86.293Y-114.293
X86.343Y-100.618
X87.293Y-114.293
X88.815Y-109.796
X89.315Y-110.596
X89.815Y-109.796
X90.315Y-110.596
X90.815Y-109.796
X91.315Y-110.596
X91.815Y-109.796
X92.293Y-97.368
X92.293Y-98.368
X92.293Y-99.368
X92.293Y-100.368
X92.293Y-101.368
X92.293Y-102.368
X92.293Y-103.368
X92.315Y-110.596
X92.793Y-80.793
X92.793Y-81.793
X92.793Y-82.793
X93.293Y-97.368
X93.293Y-98.368
X93.293Y-99.368
X93.293Y-100.368
X93.293Y-101.368
X93.293Y-102.368
X93.293Y-103.368
X93.793Y-80.793
X93.793Y-81.793
X93.793Y-82.793
X94.293Y-88.293
X94.293Y-89.293
X94.293Y-90.293
X94.293Y-97.368
X94.293Y-98.368
X94.293Y-99.368
X94.293Y-100.368
X94.293Y-101.368
X94.293Y-102.368
X94.293Y-103.368
X94.793Y-80.793
X94.793Y-81.793
X94.793Y-82.793
X95.293Y-88.293
X95.293Y-89.293
X95.293Y-90.293
X96.293Y-88.293
X96.293Y-89.293
X96.293Y-90.293
X98.293Y-98.793
X98.293Y-119.293
X99.293Y-98.029
X99.793Y-119.293
X99.818Y-91.793
X100.318Y-90.993
X100.818Y-91.793
X101.293Y-119.293
X101.318Y-90.993
X101.793Y-99.293
X101.793Y-102.293
X101.818Y-91.793
X102.318Y-90.993
X102.793Y-119.293
X102.818Y-91.793
X103.293Y-103.793
X103.293Y-104.793
X103.318Y-90.993
X104.293Y-119.293
X104.793Y-87.293
X105.793Y-87.293
X105.793Y-119.293
X106.793Y-87.293
X107.293Y-119.293
X107.793Y-87.293
X107.793Y-104.293
X107.793Y-105.293
X107.793Y-106.293
X107.793Y-107.293
X107.793Y-108.293
X107.793Y-109.293
X107.793Y-110.293
X107.793Y-111.293
X107.793Y-112.293
X107.793Y-113.293
X108.793Y-104.293
X108.793Y-105.293
X108.793Y-106.293
X108.793Y-107.293
X108.793Y-108.293
X108.793Y-109.293
X108.793Y-110.293
X108.793Y-111.293
X108.793Y-112.293
X108.793Y-113.293
X108.793Y-119.293
X109.793Y-101.543
X109.793Y-103.293
X109.793Y-105.293
X109.793Y-106.293
X109.793Y-107.293
X109.793Y-108.293
X109.793Y-109.293
X109.793Y-110.293
X109.793Y-111.293
X109.793Y-112.293
X109.793Y-113.293
X110.293Y-119.293
X110.793Y-101.043
X110.793Y-103.293
X110.793Y-106.293
X110.793Y-107.293
X110.793Y-108.293
X110.793Y-109.293
X110.793Y-110.293
X110.793Y-111.293
X110.793Y-112.293
X110.793Y-113.293
X111.793Y-100.043
X111.793Y-103.293
X111.793Y-119.293
X112.293Y-82.293
X113.293Y-119.293
X113.793Y-82.293
X114.793Y-119.293
X115.293Y-82.293
X115.293Y-97.793
X115.293Y-100.543
X116.293Y-119.293
X116.793Y-82.293
X117.793Y-100.543
X117.793Y-103.793
X117.793Y-119.293
X118.293Y-82.293
X119.293Y-119.293
X119.793Y-82.293
X120.793Y-119.293
X121.293Y-82.293
X121.293Y-98.293
X121.293Y-100.043
X122.293Y-88.293
X122.293Y-89.293
X122.293Y-90.293
X122.293Y-91.293
X122.293Y-92.293
X122.293Y-93.293
X122.293Y-94.293
X122.293Y-95.293
X122.293Y-98.293
X122.293Y-101.043
X122.793Y-82.293
X123.293Y-88.293
X123.293Y-89.293
X123.293Y-90.293
X123.293Y-91.293
X123.293Y-92.293
X123.293Y-93.293
X123.293Y-94.293
X123.293Y-95.293
X123.293Y-96.293
X123.293Y-98.293
X123.293Y-101.543
X124.293Y-82.293
X124.293Y-88.293
X124.293Y-89.293
X124.293Y-90.293
X124.293Y-91.293
X124.293Y-92.293
X124.293Y-93.293
X124.293Y-94.293
X124.293Y-95.293
X124.293Y-96.293
X124.293Y-97.293
X125.293Y-88.293
X125.293Y-89.293
X125.293Y-90.293
X125.293Y-91.293
X125.293Y-92.293
X125.293Y-93.293
X125.293Y-94.293
X125.293Y-95.293
X125.293Y-96.293
X125.293Y-97.293
X125.293Y-114.293
X125.793Y-82.293
X126.293Y-114.293
X127.293Y-82.293
X127.293Y-114.293
X128.293Y-114.293
X128.793Y-82.293
X129.765Y-110.596
X129.793Y-96.793
X129.793Y-97.793
X130.265Y-109.796
X130.293Y-82.293
X130.765Y-110.596
X131.265Y-109.796
X131.765Y-110.596
X131.793Y-82.293
X132.265Y-109.796
X132.765Y-110.596
X133.265Y-109.796
X133.293Y-82.293
X134.793Y-82.293
X136.793Y-111.293
X136.793Y-112.293
X136.793Y-113.293
X137.793Y-111.293
X137.793Y-112.293
X137.793Y-113.293
X138.293Y-118.793
X138.293Y-119.793
X138.293Y-120.793
X138.793Y-111.293
X138.793Y-112.293
X138.793Y-113.293
X139.293Y-118.793
X139.293Y-119.793
X139.293Y-120.793
X140.293Y-118.793
X140.293Y-119.793
X140.293Y-120.793
X140.768Y-90.993
X141.268Y-91.793
X141.768Y-90.993
X142.268Y-91.793
X142.768Y-90.993
X143.268Y-91.793
X143.768Y-90.993
X144.268Y-91.793
X145.793Y-87.293
X146.793Y-87.293
X147.793Y-87.293
X148.793Y-87.293
X154.293Y-114.293
X155.293Y-114.293
X156.293Y-114.293
X157.293Y-114.293
X158.815Y-109.796
X159.315Y-110.596
X159.815Y-109.796
X160.315Y-110.596
X160.815Y-109.796
X161.315Y-110.596
X161.815Y-109.796
X162.315Y-110.596
X162.793Y-80.793
X162.793Y-81.793
X162.793Y-82.793
X163.793Y-80.793
X163.793Y-81.793
X163.793Y-82.793
X164.293Y-88.293
X164.293Y-89.293
X164.293Y-90.293
X164.793Y-80.793
X164.793Y-81.793
X164.793Y-82.793
X165.293Y-88.293
X165.293Y-89.293
X165.293Y-90.293
X166.293Y-88.293
X166.293Y-89.293
X166.293Y-90.293
X168.293Y-119.293
X169.793Y-119.293
X169.818Y-91.793
X170.318Y-90.993
X170.818Y-91.793
X171.293Y-119.293
X171.318Y-90.993
X171.818Y-91.793
X172.318Y-90.993
X172.793Y-119.293
X172.818Y-91.793
X173.293Y-103.793
X173.293Y-104.793
X173.318Y-90.993
X174.293Y-119.293
X174.793Y-87.293
X175.793Y-87.293
X175.793Y-119.293
X176.793Y-87.293
X177.293Y-119.293
X177.793Y-87.293
X177.793Y-104.293
X177.793Y-105.293
X177.793Y-106.293
X177.793Y-107.293
X177.793Y-108.293
X177.793Y-109.293
X177.793Y-110.293
X177.793Y-111.293
X177.793Y-112.293
X177.793Y-113.293
X178.793Y-104.293
X178.793Y-105.293
X178.793Y-106.293
X178.793Y-107.293
X178.793Y-108.293
X178.793Y-109.293
X178.793Y-110.293
X178.793Y-111.293
X178.793Y-112.293
X178.793Y-113.293
X178.793Y-119.293
X179.793Y-101.543
X179.793Y-103.293
X179.793Y-105.293
X179.793Y-106.293
X179.793Y-107.293
X179.793Y-108.293
X179.793Y-109.293
X179.793Y-110.293
X179.793Y-111.293
X179.793Y-112.293
X179.793Y-113.293
X180.293Y-119.293
X180.793Y-101.043
X180.793Y-103.293
X180.793Y-106.293
X180.793Y-107.293
X180.793Y-108.293
X180.793Y-109.293
X180.793Y-110.293
X180.793Y-111.293
X180.793Y-112.293
X180.793Y-113.293
X181.793Y-100.043
X181.793Y-103.293
X181.793Y-119.293
X182.293Y-82.293
X183.293Y-119.293
X183.793Y-82.293
X184.793Y-119.293
X185.293Y-82.293
X185.293Y-97.793
X185.293Y-100.543
X186.293Y-119.293
X186.793Y-82.293
X187.793Y-100.543
X187.793Y-103.793
X187.793Y-119.293
X188.293Y-82.293
X189.293Y-119.293
X189.793Y-82.293
X190.793Y-119.293
X191.293Y-82.293
X191.293Y-98.293
X191.293Y-100.043
X192.293Y-88.293
X192.293Y-89.293
X192.293Y-90.293
X192.293Y-91.293
X192.293Y-92.293
X192.293Y-93.293
X192.293Y-94.293
X192.293Y-95.293
X192.293Y-98.293
X192.293Y-101.043
X192.793Y-82.293
X193.293Y-88.293
X193.293Y-89.293
X193.293Y-90.293
X193.293Y-91.293
X193.293Y-92.293
X193.293Y-93.293
X193.293Y-94.293
X193.293Y-95.293
X193.293Y-96.293
X193.293Y-98.293
X193.293Y-101.543
X194.293Y-82.293
X194.293Y-88.293
X194.293Y-89.293
X194.293Y-90.293
X194.293Y-91.293
X194.293Y-92.293
X194.293Y-93.293
X194.293Y-94.293
X194.293Y-95.293
X194.293Y-96.293
X194.293Y-97.293
X195.293Y-88.293
X195.293Y-89.293
X195.293Y-90.293
X195.293Y-91.293
X195.293Y-92.293
X195.293Y-93.293
X195.293Y-94.293
X195.293Y-95.293
X195.293Y-96.293
X195.293Y-97.293
X195.293Y-114.293
X195.793Y-82.293
X196.293Y-114.293
X197.293Y-82.293
X197.293Y-114.293
X198.293Y-114.293
X198.793Y-82.293
X199.765Y-110.596
X199.793Y-96.793
X199.793Y-97.793
X200.265Y-109.796
X200.293Y-82.293
X200.765Y-110.596
X201.265Y-109.796
X201.765Y-110.596
X201.793Y-82.293
X202.265Y-109.796
X202.765Y-110.596
X203.265Y-109.796
X203.293Y-82.293
X204.793Y-82.293
X206.793Y-111.293
X206.793Y-112.293
X206.793Y-113.293
X207.793Y-111.293
X207.793Y-112.293
X207.793Y-113.293
X208.293Y-118.793
X208.293Y-119.793
X208.293Y-120.793
X208.793Y-111.293
X208.793Y-112.293
X208.793Y-113.293
X209.293Y-118.793
X209.293Y-119.793
X209.293Y-120.793
X210.293Y-118.793
X210.293Y-119.793
X210.293Y-120.793
X210.768Y-90.993
X211.268Y-91.793
X211.768Y-90.993
X212.268Y-91.793
X212.768Y-90.993
X213.268Y-91.793
X213.768Y-90.993
X214.268Y-91.793
X215.793Y-87.293
X216.793Y-87.293
X217.793Y-87.293
X218.793Y-87.293
T2
X72.123Y-118.293
X72.123Y-119.563
X73.393Y-118.293
X73.393Y-119.563
X74.663Y-118.293
X74.663Y-119.563
T3
X70.853Y-85.893
X73.393Y-85.893
X75.933Y-85.893
T4
X69.293Y-75.293
X72.793Y-75.293
X76.293Y-75.293
X79.793Y-75.293
X83.293Y-75.293
X83.293Y-126.293
X86.793Y-75.293
X86.793Y-126.293
X90.293Y-75.293
X90.293Y-126.293
X93.793Y-75.293
X93.793Y-126.293
X97.293Y-75.293
X97.293Y-126.293
X100.793Y-75.293
X100.793Y-126.293
X104.293Y-75.293
X104.293Y-126.293
X107.793Y-75.293
X107.793Y-126.293
X111.293Y-75.293
X111.293Y-126.293
X114.793Y-75.293
X114.793Y-126.293
X118.293Y-75.293
X118.293Y-126.293
X121.793Y-75.293
X121.793Y-126.293
X125.293Y-75.293
X125.293Y-126.293
X128.793Y-75.293
X128.793Y-126.293
X132.293Y-75.293
X132.293Y-126.293
X135.793Y-75.293
X135.793Y-126.293
X139.293Y-75.293
X139.293Y-126.293
X142.793Y-75.293
X142.793Y-126.293
X146.293Y-75.293
X146.293Y-126.293
X149.793Y-75.293
X149.793Y-126.293
X153.293Y-75.293
X153.293Y-126.293
X156.793Y-75.293
X156.793Y-126.293
X160.293Y-75.293
X160.293Y-126.293
X163.793Y-75.293
X163.793Y-126.293
X167.293Y-75.293
X167.293Y-126.293
X170.793Y-75.293
X170.793Y-126.293
X174.293Y-75.293
X174.293Y-126.293
X177.793Y-75.293
X177.793Y-126.293
X181.293Y-75.293
X181.293Y-126.293
X184.793Y-75.293
X184.793Y-126.293
X188.293Y-75.293
X188.293Y-126.293
X191.793Y-75.293
X191.793Y-126.293
X195.293Y-75.293
X195.293Y-126.293
X198.793Y-75.293
X198.793Y-126.293
X202.293Y-75.293
X202.293Y-126.293
X205.793Y-75.293
X205.793Y-126.293
X209.293Y-75.293
X209.293Y-126.293
X212.793Y-75.293
X212.793Y-126.293
X216.293Y-75.293
X216.293Y-126.293
X219.793Y-75.293
X219.793Y-126.293
M30
