G04 #@! TF.GenerationSoftware,KiCad,Pcbnew,9.0.6*
G04 #@! TF.CreationDate,2025-12-08T01:39:22+01:00*
G04 #@! TF.ProjectId,OM-64DO,4f4d2d36-3444-44f2-9e6b-696361645f70,1A*
G04 #@! TF.SameCoordinates,Original*
G04 #@! TF.FileFunction,Paste,Bot*
G04 #@! TF.FilePolarity,Positive*
%FSLAX46Y46*%
G04 Gerber Fmt 4.6, Leading zero omitted, Abs format (unit mm)*
G04 Created by KiCad (PCBNEW 9.0.6) date 2025-12-08 01:39:22*
%MOMM*%
%LPD*%
G01*
G04 APERTURE LIST*
G04 Aperture macros list*
%AMRoundRect*
0 Rectangle with rounded corners*
0 $1 Rounding radius*
0 $2 $3 $4 $5 $6 $7 $8 $9 X,Y pos of 4 corners*
0 Add a 4 corners polygon primitive as box body*
4,1,4,$2,$3,$4,$5,$6,$7,$8,$9,$2,$3,0*
0 Add four circle primitives for the rounded corners*
1,1,$1+$1,$2,$3*
1,1,$1+$1,$4,$5*
1,1,$1+$1,$6,$7*
1,1,$1+$1,$8,$9*
0 Add four rect primitives between the rounded corners*
20,1,$1+$1,$2,$3,$4,$5,0*
20,1,$1+$1,$4,$5,$6,$7,0*
20,1,$1+$1,$6,$7,$8,$9,0*
20,1,$1+$1,$8,$9,$2,$3,0*%
G04 Aperture macros list end*
%ADD10RoundRect,0.075000X0.075000X-0.362500X0.075000X0.362500X-0.075000X0.362500X-0.075000X-0.362500X0*%
%ADD11RoundRect,0.242500X0.242500X-0.402500X0.242500X0.402500X-0.242500X0.402500X-0.242500X-0.402500X0*%
%ADD12RoundRect,0.150000X-0.150000X0.587500X-0.150000X-0.587500X0.150000X-0.587500X0.150000X0.587500X0*%
%ADD13RoundRect,0.200000X-0.200000X-0.275000X0.200000X-0.275000X0.200000X0.275000X-0.200000X0.275000X0*%
%ADD14RoundRect,0.225000X0.250000X-0.225000X0.250000X0.225000X-0.250000X0.225000X-0.250000X-0.225000X0*%
%ADD15R,0.300000X0.800000*%
%ADD16RoundRect,0.200000X-0.275000X0.200000X-0.275000X-0.200000X0.275000X-0.200000X0.275000X0.200000X0*%
%ADD17RoundRect,0.200000X0.275000X-0.200000X0.275000X0.200000X-0.275000X0.200000X-0.275000X-0.200000X0*%
G04 APERTURE END LIST*
D10*
G04 #@! TO.C,U102*
X81792893Y-96017893D03*
X81142893Y-96017893D03*
X80492893Y-96017893D03*
X79842893Y-96017893D03*
X79842893Y-98892893D03*
X80492893Y-98892893D03*
X81142893Y-98892893D03*
X81792893Y-98892893D03*
D11*
X81417893Y-97455393D03*
X80217893Y-97455393D03*
G04 #@! TD*
D12*
G04 #@! TO.C,D101*
X80817893Y-92017893D03*
X81767893Y-90142893D03*
X79867893Y-90142893D03*
G04 #@! TD*
D13*
G04 #@! TO.C,R102*
X82617893Y-100517893D03*
X80967893Y-100517893D03*
G04 #@! TD*
D14*
G04 #@! TO.C,C103*
X83642893Y-96242893D03*
X83642893Y-97792893D03*
G04 #@! TD*
D15*
G04 #@! TO.C,RN402*
X92317893Y-111392893D03*
X91817893Y-111392893D03*
X91317893Y-111392893D03*
X90817893Y-111392893D03*
X90317893Y-111392893D03*
X89817893Y-111392893D03*
X89317893Y-111392893D03*
X88817893Y-111392893D03*
X88817893Y-113192893D03*
X89317893Y-113192893D03*
X89817893Y-113192893D03*
X90317893Y-113192893D03*
X90817893Y-113192893D03*
X91317893Y-113192893D03*
X91817893Y-113192893D03*
X92317893Y-113192893D03*
G04 #@! TD*
D16*
G04 #@! TO.C,R418*
X98292893Y-121942893D03*
X98292893Y-120292893D03*
G04 #@! TD*
G04 #@! TO.C,R417*
X99792893Y-121942893D03*
X99792893Y-120292893D03*
G04 #@! TD*
G04 #@! TO.C,R416*
X101292893Y-121942893D03*
X101292893Y-120292893D03*
G04 #@! TD*
D15*
G04 #@! TO.C,RN201*
X99817893Y-90192893D03*
X100317893Y-90192893D03*
X100817893Y-90192893D03*
X101317893Y-90192893D03*
X101817893Y-90192893D03*
X102317893Y-90192893D03*
X102817893Y-90192893D03*
X103317893Y-90192893D03*
X103317893Y-88392893D03*
X102817893Y-88392893D03*
X102317893Y-88392893D03*
X101817893Y-88392893D03*
X101317893Y-88392893D03*
X100817893Y-88392893D03*
X100317893Y-88392893D03*
X99817893Y-88392893D03*
G04 #@! TD*
D16*
G04 #@! TO.C,R415*
X102792893Y-121942893D03*
X102792893Y-120292893D03*
G04 #@! TD*
G04 #@! TO.C,R414*
X104292893Y-121942893D03*
X104292893Y-120292893D03*
G04 #@! TD*
G04 #@! TO.C,R413*
X105792893Y-121942893D03*
X105792893Y-120292893D03*
G04 #@! TD*
G04 #@! TO.C,R412*
X107292893Y-121942893D03*
X107292893Y-120292893D03*
G04 #@! TD*
G04 #@! TO.C,R411*
X108792893Y-121942893D03*
X108792893Y-120292893D03*
G04 #@! TD*
G04 #@! TO.C,R410*
X110292893Y-121942893D03*
X110292893Y-120292893D03*
G04 #@! TD*
G04 #@! TO.C,R409*
X111792893Y-121942893D03*
X111792893Y-120292893D03*
G04 #@! TD*
D17*
G04 #@! TO.C,R203*
X112292893Y-79792893D03*
X112292893Y-81442893D03*
G04 #@! TD*
D16*
G04 #@! TO.C,R408*
X113292893Y-121942893D03*
X113292893Y-120292893D03*
G04 #@! TD*
D17*
G04 #@! TO.C,R204*
X113792893Y-79792893D03*
X113792893Y-81442893D03*
G04 #@! TD*
D16*
G04 #@! TO.C,R407*
X114792893Y-121942893D03*
X114792893Y-120292893D03*
G04 #@! TD*
D17*
G04 #@! TO.C,R205*
X115292893Y-79792893D03*
X115292893Y-81442893D03*
G04 #@! TD*
D16*
G04 #@! TO.C,R406*
X116292893Y-121942893D03*
X116292893Y-120292893D03*
G04 #@! TD*
D17*
G04 #@! TO.C,R206*
X116792893Y-79792893D03*
X116792893Y-81442893D03*
G04 #@! TD*
D16*
G04 #@! TO.C,R405*
X117792893Y-121942893D03*
X117792893Y-120292893D03*
G04 #@! TD*
D17*
G04 #@! TO.C,R207*
X118292893Y-79792893D03*
X118292893Y-81442893D03*
G04 #@! TD*
D16*
G04 #@! TO.C,R404*
X119292893Y-121942893D03*
X119292893Y-120292893D03*
G04 #@! TD*
D17*
G04 #@! TO.C,R208*
X119792893Y-79792893D03*
X119792893Y-81442893D03*
G04 #@! TD*
D16*
G04 #@! TO.C,R403*
X120792893Y-121942893D03*
X120792893Y-120292893D03*
G04 #@! TD*
D17*
G04 #@! TO.C,R209*
X121292893Y-79792893D03*
X121292893Y-81442893D03*
G04 #@! TD*
G04 #@! TO.C,R210*
X122792893Y-79792893D03*
X122792893Y-81442893D03*
G04 #@! TD*
G04 #@! TO.C,R211*
X124292893Y-79792893D03*
X124292893Y-81442893D03*
G04 #@! TD*
G04 #@! TO.C,R212*
X125792893Y-79792893D03*
X125792893Y-81442893D03*
G04 #@! TD*
G04 #@! TO.C,R213*
X127292893Y-79792893D03*
X127292893Y-81442893D03*
G04 #@! TD*
G04 #@! TO.C,R214*
X128792893Y-79792893D03*
X128792893Y-81442893D03*
G04 #@! TD*
G04 #@! TO.C,R215*
X130292893Y-79792893D03*
X130292893Y-81442893D03*
G04 #@! TD*
D15*
G04 #@! TO.C,RN401*
X133267893Y-111392893D03*
X132767893Y-111392893D03*
X132267893Y-111392893D03*
X131767893Y-111392893D03*
X131267893Y-111392893D03*
X130767893Y-111392893D03*
X130267893Y-111392893D03*
X129767893Y-111392893D03*
X129767893Y-113192893D03*
X130267893Y-113192893D03*
X130767893Y-113192893D03*
X131267893Y-113192893D03*
X131767893Y-113192893D03*
X132267893Y-113192893D03*
X132767893Y-113192893D03*
X133267893Y-113192893D03*
G04 #@! TD*
D17*
G04 #@! TO.C,R216*
X131792893Y-79792893D03*
X131792893Y-81442893D03*
G04 #@! TD*
G04 #@! TO.C,R217*
X133292893Y-79792893D03*
X133292893Y-81442893D03*
G04 #@! TD*
G04 #@! TO.C,R218*
X134792893Y-79792893D03*
X134792893Y-81442893D03*
G04 #@! TD*
D15*
G04 #@! TO.C,RN202*
X140767893Y-90192893D03*
X141267893Y-90192893D03*
X141767893Y-90192893D03*
X142267893Y-90192893D03*
X142767893Y-90192893D03*
X143267893Y-90192893D03*
X143767893Y-90192893D03*
X144267893Y-90192893D03*
X144267893Y-88392893D03*
X143767893Y-88392893D03*
X143267893Y-88392893D03*
X142767893Y-88392893D03*
X142267893Y-88392893D03*
X141767893Y-88392893D03*
X141267893Y-88392893D03*
X140767893Y-88392893D03*
G04 #@! TD*
G04 #@! TO.C,RN502*
X162317893Y-111392893D03*
X161817893Y-111392893D03*
X161317893Y-111392893D03*
X160817893Y-111392893D03*
X160317893Y-111392893D03*
X159817893Y-111392893D03*
X159317893Y-111392893D03*
X158817893Y-111392893D03*
X158817893Y-113192893D03*
X159317893Y-113192893D03*
X159817893Y-113192893D03*
X160317893Y-113192893D03*
X160817893Y-113192893D03*
X161317893Y-113192893D03*
X161817893Y-113192893D03*
X162317893Y-113192893D03*
G04 #@! TD*
D16*
G04 #@! TO.C,R518*
X168292893Y-121942893D03*
X168292893Y-120292893D03*
G04 #@! TD*
G04 #@! TO.C,R517*
X169792893Y-121942893D03*
X169792893Y-120292893D03*
G04 #@! TD*
G04 #@! TO.C,R516*
X171292893Y-121942893D03*
X171292893Y-120292893D03*
G04 #@! TD*
D15*
G04 #@! TO.C,RN301*
X169817893Y-90192893D03*
X170317893Y-90192893D03*
X170817893Y-90192893D03*
X171317893Y-90192893D03*
X171817893Y-90192893D03*
X172317893Y-90192893D03*
X172817893Y-90192893D03*
X173317893Y-90192893D03*
X173317893Y-88392893D03*
X172817893Y-88392893D03*
X172317893Y-88392893D03*
X171817893Y-88392893D03*
X171317893Y-88392893D03*
X170817893Y-88392893D03*
X170317893Y-88392893D03*
X169817893Y-88392893D03*
G04 #@! TD*
D16*
G04 #@! TO.C,R515*
X172792893Y-121942893D03*
X172792893Y-120292893D03*
G04 #@! TD*
G04 #@! TO.C,R514*
X174292893Y-121942893D03*
X174292893Y-120292893D03*
G04 #@! TD*
G04 #@! TO.C,R513*
X175792893Y-121942893D03*
X175792893Y-120292893D03*
G04 #@! TD*
G04 #@! TO.C,R512*
X177292893Y-121942893D03*
X177292893Y-120292893D03*
G04 #@! TD*
G04 #@! TO.C,R511*
X178792893Y-121942893D03*
X178792893Y-120292893D03*
G04 #@! TD*
G04 #@! TO.C,R510*
X180292893Y-121942893D03*
X180292893Y-120292893D03*
G04 #@! TD*
G04 #@! TO.C,R509*
X181792893Y-121942893D03*
X181792893Y-120292893D03*
G04 #@! TD*
D17*
G04 #@! TO.C,R303*
X182292893Y-79792893D03*
X182292893Y-81442893D03*
G04 #@! TD*
D16*
G04 #@! TO.C,R508*
X183292893Y-121942893D03*
X183292893Y-120292893D03*
G04 #@! TD*
D17*
G04 #@! TO.C,R304*
X183792893Y-79792893D03*
X183792893Y-81442893D03*
G04 #@! TD*
D16*
G04 #@! TO.C,R507*
X184792893Y-121942893D03*
X184792893Y-120292893D03*
G04 #@! TD*
D17*
G04 #@! TO.C,R305*
X185292893Y-79792893D03*
X185292893Y-81442893D03*
G04 #@! TD*
D16*
G04 #@! TO.C,R506*
X186292893Y-121942893D03*
X186292893Y-120292893D03*
G04 #@! TD*
D17*
G04 #@! TO.C,R306*
X186792893Y-79792893D03*
X186792893Y-81442893D03*
G04 #@! TD*
D16*
G04 #@! TO.C,R505*
X187792893Y-121942893D03*
X187792893Y-120292893D03*
G04 #@! TD*
D17*
G04 #@! TO.C,R307*
X188292893Y-79792893D03*
X188292893Y-81442893D03*
G04 #@! TD*
D16*
G04 #@! TO.C,R504*
X189292893Y-121942893D03*
X189292893Y-120292893D03*
G04 #@! TD*
D17*
G04 #@! TO.C,R308*
X189792893Y-79792893D03*
X189792893Y-81442893D03*
G04 #@! TD*
D16*
G04 #@! TO.C,R503*
X190792893Y-121942893D03*
X190792893Y-120292893D03*
G04 #@! TD*
D17*
G04 #@! TO.C,R309*
X191292893Y-79792893D03*
X191292893Y-81442893D03*
G04 #@! TD*
G04 #@! TO.C,R310*
X192792893Y-79792893D03*
X192792893Y-81442893D03*
G04 #@! TD*
G04 #@! TO.C,R311*
X194292893Y-79792893D03*
X194292893Y-81442893D03*
G04 #@! TD*
G04 #@! TO.C,R312*
X195792893Y-79792893D03*
X195792893Y-81442893D03*
G04 #@! TD*
G04 #@! TO.C,R313*
X197292893Y-79792893D03*
X197292893Y-81442893D03*
G04 #@! TD*
G04 #@! TO.C,R314*
X198792893Y-79792893D03*
X198792893Y-81442893D03*
G04 #@! TD*
G04 #@! TO.C,R315*
X200292893Y-79792893D03*
X200292893Y-81442893D03*
G04 #@! TD*
D15*
G04 #@! TO.C,RN501*
X203267893Y-111392893D03*
X202767893Y-111392893D03*
X202267893Y-111392893D03*
X201767893Y-111392893D03*
X201267893Y-111392893D03*
X200767893Y-111392893D03*
X200267893Y-111392893D03*
X199767893Y-111392893D03*
X199767893Y-113192893D03*
X200267893Y-113192893D03*
X200767893Y-113192893D03*
X201267893Y-113192893D03*
X201767893Y-113192893D03*
X202267893Y-113192893D03*
X202767893Y-113192893D03*
X203267893Y-113192893D03*
G04 #@! TD*
D17*
G04 #@! TO.C,R316*
X201792893Y-79792893D03*
X201792893Y-81442893D03*
G04 #@! TD*
G04 #@! TO.C,R317*
X203292893Y-79792893D03*
X203292893Y-81442893D03*
G04 #@! TD*
G04 #@! TO.C,R318*
X204792893Y-79792893D03*
X204792893Y-81442893D03*
G04 #@! TD*
D15*
G04 #@! TO.C,RN302*
X210767893Y-90192893D03*
X211267893Y-90192893D03*
X211767893Y-90192893D03*
X212267893Y-90192893D03*
X212767893Y-90192893D03*
X213267893Y-90192893D03*
X213767893Y-90192893D03*
X214267893Y-90192893D03*
X214267893Y-88392893D03*
X213767893Y-88392893D03*
X213267893Y-88392893D03*
X212767893Y-88392893D03*
X212267893Y-88392893D03*
X211767893Y-88392893D03*
X211267893Y-88392893D03*
X210767893Y-88392893D03*
G04 #@! TD*
M02*
